<?xml version="1.0" encoding="utf-8"?>
<!-- Generator: Adobe Illustrator 14.0.0, SVG Export Plug-In . SVG Version: 6.00 Build 43363)  -->
<!DOCTYPE svg PUBLIC "-//W3C//DTD SVG 1.1//EN" "http://www.w3.org/Graphics/SVG/1.1/DTD/svg11.dtd">
<svg version="1.1" xmlns="http://www.w3.org/2000/svg" xmlns:xlink="http://www.w3.org/1999/xlink" x="0px" y="0px"
	 width="552.237px" height="198.424px" viewBox="0 0 552.237 198.424" enable-background="new 0 0 552.237 198.424"
	 xml:space="preserve">
<g id="Livello_5">
	<line fill="none" stroke="#1A1D1D" stroke-width="0.5" stroke-miterlimit="10" x1="214.07" y1="40.13" x2="214.07" y2="161.279"/>
</g>
<g id="Livello_3">
	<g>
		<path d="M238.107,65.113v11.399c0,3.829,1.596,5.599,4.003,5.599c2.582,0,4.119-1.77,4.119-5.599V65.113h3.567v11.168
			c0,6.033-3.104,8.702-7.803,8.702c-4.525,0-7.455-2.523-7.455-8.673V65.113H238.107z"/>
		<path d="M253.824,84.664V65.113h4.09l5.047,8.383c1.277,2.176,2.438,4.438,3.336,6.556h0.059c-0.262-2.61-0.319-5.134-0.319-8.122
			v-6.816h3.308v19.551h-3.713l-5.105-8.615c-1.248-2.146-2.523-4.525-3.48-6.729l-0.117,0.029c0.146,2.523,0.203,5.104,0.203,8.325
			v6.99H253.824z"/>
		<path d="M276.996,65.113v19.551h-3.568V65.113H276.996z"/>
		<path d="M285.521,84.664l-6.322-19.551h3.887l2.668,8.905c0.754,2.466,1.422,4.729,1.914,7.106h0.059
			c0.522-2.32,1.248-4.699,2.002-7.077l2.842-8.935h3.801l-6.759,19.551H285.521z"/>
		<path d="M309.391,75.991h-7.368v5.743h8.237v2.93h-11.805V65.113h11.37v2.93h-7.803v5.047h7.368V75.991z"/>
		<path d="M313.361,65.403c1.363-0.261,3.336-0.435,5.395-0.435c2.814,0,4.699,0.464,6.033,1.566
			c1.074,0.898,1.683,2.262,1.683,3.944c0,2.523-1.712,4.235-3.567,4.873v0.087c1.421,0.522,2.262,1.886,2.727,3.771
			c0.639,2.437,1.16,4.699,1.537,5.453h-3.654c-0.291-0.58-0.783-2.176-1.306-4.612c-0.58-2.553-1.479-3.364-3.51-3.423h-1.799
			v8.035h-3.538V65.403z M316.899,74.018h2.118c2.407,0,3.887-1.276,3.887-3.22c0-2.117-1.479-3.133-3.801-3.133
			c-1.131,0-1.855,0.087-2.204,0.174V74.018z"/>
		<path d="M329.774,80.777c1.132,0.667,2.901,1.247,4.728,1.247c2.264,0,3.539-1.073,3.539-2.669c0-1.479-0.986-2.35-3.451-3.248
			c-3.249-1.161-5.309-2.872-5.309-5.686c0-3.22,2.668-5.628,6.933-5.628c2.118,0,3.655,0.465,4.671,0.986l-0.842,2.872
			c-0.725-0.377-2.088-0.929-3.916-0.929c-2.263,0-3.22,1.189-3.22,2.35c0,1.509,1.132,2.205,3.741,3.22
			c3.395,1.276,5.02,2.988,5.02,5.802c0,3.162-2.379,5.889-7.397,5.889c-2.089,0-4.235-0.58-5.308-1.247L329.774,80.777z"/>
		<path d="M348.422,65.113v19.551h-3.568V65.113H348.422z"/>
		<path d="M356.223,68.101h-5.569v-2.988h14.765v2.988h-5.627v16.563h-3.568V68.101z"/>
		<path d="M369.476,79.124l-1.683,5.54h-3.684l6.266-19.551h4.554l6.353,19.551h-3.857l-1.77-5.54H369.476z M371.971,60.588
			l2.552,3.452h-2.872l-3.625-3.452H371.971z M375.074,76.425l-1.537-4.814c-0.378-1.189-0.697-2.524-0.986-3.655h-0.059
			c-0.29,1.131-0.609,2.494-0.928,3.655l-1.509,4.814H375.074z"/>
		<path d="M389.948,65.374c1.595-0.231,3.567-0.405,5.685-0.405c3.656,0,6.15,0.754,7.949,2.262
			c1.914,1.538,3.074,3.888,3.074,7.194c0,3.51-1.189,6.091-3.046,7.773c-1.943,1.77-5.048,2.669-8.847,2.669
			c-2.061,0-3.627-0.116-4.815-0.261V65.374z M393.516,81.966c0.494,0.087,1.248,0.087,1.973,0.087
			c4.641,0.028,7.396-2.553,7.396-7.513c0.029-4.293-2.465-6.788-6.932-6.788c-1.132,0-1.915,0.087-2.438,0.203V81.966z"/>
		<path d="M420.661,75.991h-7.368v5.743h8.238v2.93h-11.806V65.113h11.37v2.93h-7.803v5.047h7.368V75.991z"/>
		<path d="M440.296,83.764c-1.247,0.464-3.684,1.103-6.266,1.103c-3.307,0-5.83-0.841-7.687-2.61
			c-1.74-1.653-2.727-4.235-2.727-7.194c0.029-6.207,4.408-10.152,10.877-10.152c2.408,0,4.293,0.493,5.193,0.929l-0.783,2.871
			c-1.074-0.493-2.379-0.841-4.438-0.841c-4.177,0-7.106,2.466-7.106,7.02c0,4.438,2.727,7.078,6.787,7.078
			c1.305,0,2.233-0.175,2.697-0.378v-4.901h-3.451v-2.814h6.903V83.764z"/>
		<path d="M443.917,65.113h3.567v16.563h8.035v2.987h-11.603V65.113z"/>
		<path d="M461.752,65.113v19.551h-3.567V65.113H461.752z"/>
		<path d="M471.727,80.777c1.131,0.667,2.9,1.247,4.729,1.247c2.262,0,3.539-1.073,3.539-2.669c0-1.479-0.986-2.35-3.453-3.248
			c-3.248-1.161-5.308-2.872-5.308-5.686c0-3.22,2.669-5.628,6.933-5.628c2.117,0,3.654,0.465,4.67,0.986l-0.841,2.872
			c-0.726-0.377-2.089-0.929-3.916-0.929c-2.263,0-3.22,1.189-3.22,2.35c0,1.509,1.131,2.205,3.742,3.22
			c3.394,1.276,5.018,2.988,5.018,5.802c0,3.162-2.379,5.889-7.396,5.889c-2.088,0-4.234-0.58-5.309-1.247L471.727,80.777z"/>
		<path d="M490.549,68.101h-5.57v-2.988h14.766v2.988h-5.628v16.563h-3.567V68.101z"/>
		<path d="M505.541,65.113v11.399c0,3.829,1.596,5.599,4.003,5.599c2.582,0,4.119-1.77,4.119-5.599V65.113h3.567v11.168
			c0,6.033-3.104,8.702-7.803,8.702c-4.525,0-7.455-2.523-7.455-8.673V65.113H505.541z"/>
		<path d="M521.287,65.374c1.595-0.231,3.567-0.405,5.685-0.405c3.655,0,6.149,0.754,7.948,2.262
			c1.914,1.538,3.074,3.888,3.074,7.194c0,3.51-1.189,6.091-3.045,7.773c-1.943,1.77-5.047,2.669-8.848,2.669
			c-2.06,0-3.625-0.116-4.814-0.261V65.374z M524.854,81.966c0.493,0.087,1.247,0.087,1.972,0.087
			c4.642,0.028,7.397-2.553,7.397-7.513c0.028-4.293-2.466-6.788-6.933-6.788c-1.131,0-1.914,0.087-2.437,0.203V81.966z"/>
		<path d="M544.633,65.113v19.551h-3.568V65.113H544.633z"/>
		<path d="M234.568,92.374c1.596-0.231,3.568-0.405,5.686-0.405c3.655,0,6.15,0.754,7.948,2.262
			c1.915,1.538,3.075,3.888,3.075,7.194c0,3.51-1.189,6.091-3.047,7.773c-1.943,1.77-5.047,2.669-8.847,2.669
			c-2.06,0-3.626-0.116-4.815-0.261V92.374z M238.137,108.966c0.493,0.087,1.247,0.087,1.973,0.087
			c4.641,0.028,7.396-2.553,7.396-7.513c0.029-4.293-2.465-6.788-6.933-6.788c-1.132,0-1.915,0.087-2.437,0.203V108.966z"/>
		<path d="M257.915,92.113v19.551h-3.567V92.113H257.915z"/>
		<path d="M281.957,111.113c-0.841,0.405-2.697,0.87-5.076,0.87c-6.207,0-9.979-3.887-9.979-9.862
			c0-6.439,4.496-10.327,10.473-10.327c2.35,0,4.002,0.493,4.728,0.87l-0.754,2.843c-0.929-0.405-2.233-0.754-3.829-0.754
			c-3.975,0-6.846,2.495-6.846,7.193c0,4.322,2.494,7.049,6.816,7.049c1.422,0,2.93-0.29,3.887-0.696L281.957,111.113z"/>
		<path d="M289.088,106.124l-1.682,5.54h-3.684l6.265-19.551h4.554l6.354,19.551h-3.858l-1.77-5.54H289.088z M294.687,103.425
			l-1.537-4.814c-0.378-1.189-0.696-2.524-0.986-3.655h-0.058c-0.291,1.131-0.609,2.494-0.929,3.655l-1.509,4.814H294.687z"/>
		<path d="M303.529,107.777c1.131,0.667,2.9,1.247,4.729,1.247c2.262,0,3.539-1.073,3.539-2.669c0-1.479-0.986-2.35-3.453-3.248
			c-3.248-1.161-5.308-2.872-5.308-5.686c0-3.22,2.669-5.628,6.933-5.628c2.117,0,3.654,0.465,4.67,0.986l-0.841,2.872
			c-0.726-0.377-2.089-0.929-3.916-0.929c-2.263,0-3.22,1.189-3.22,2.35c0,1.509,1.131,2.205,3.742,3.22
			c3.394,1.276,5.018,2.988,5.018,5.802c0,3.162-2.379,5.889-7.396,5.889c-2.088,0-4.234-0.58-5.309-1.247L303.529,107.777z"/>
		<path d="M318.551,107.777c1.132,0.667,2.901,1.247,4.729,1.247c2.263,0,3.539-1.073,3.539-2.669c0-1.479-0.986-2.35-3.452-3.248
			c-3.249-1.161-5.308-2.872-5.308-5.686c0-3.22,2.668-5.628,6.932-5.628c2.118,0,3.655,0.465,4.671,0.986l-0.841,2.872
			c-0.726-0.377-2.089-0.929-3.916-0.929c-2.264,0-3.221,1.189-3.221,2.35c0,1.509,1.132,2.205,3.742,3.22
			c3.395,1.276,5.019,2.988,5.019,5.802c0,3.162-2.379,5.889-7.397,5.889c-2.088,0-4.234-0.58-5.308-1.247L318.551,107.777z"/>
		<path d="M337.199,92.113v19.551h-3.568V92.113H337.199z"/>
		<path d="M341.229,111.664V92.113h4.09l5.047,8.383c1.277,2.176,2.438,4.438,3.336,6.556h0.059
			c-0.262-2.61-0.319-5.134-0.319-8.122v-6.816h3.308v19.551h-3.713l-5.105-8.615c-1.248-2.146-2.523-4.525-3.48-6.729l-0.117,0.029
			c0.146,2.523,0.203,5.104,0.203,8.325v6.99H341.229z"/>
		<path d="M378.179,101.685c0,6.556-3.974,10.298-9.341,10.298c-5.54,0-9.021-4.235-9.021-9.949c0-6.034,3.8-10.269,9.312-10.269
			C374.814,91.765,378.179,96.086,378.179,101.685z M363.588,101.946c0,4.003,2.002,7.165,5.424,7.165
			c3.453,0,5.396-3.22,5.396-7.31c0-3.684-1.828-7.165-5.396-7.165C365.474,94.636,363.588,97.915,363.588,101.946z"/>
		<path d="M398.129,102.991h-7.367v5.743h8.237v2.93h-11.806V92.113h11.371v2.93h-7.803v5.047h7.367V102.991z"/>
		<path d="M408.072,92.374c1.596-0.231,3.568-0.405,5.686-0.405c3.655,0,6.15,0.754,7.948,2.262
			c1.915,1.538,3.075,3.888,3.075,7.194c0,3.51-1.189,6.091-3.047,7.773c-1.943,1.77-5.047,2.669-8.847,2.669
			c-2.06,0-3.626-0.116-4.815-0.261V92.374z M411.641,108.966c0.493,0.087,1.247,0.087,1.973,0.087
			c4.641,0.028,7.396-2.553,7.396-7.513c0.029-4.293-2.465-6.788-6.933-6.788c-1.132,0-1.915,0.087-2.437,0.203V108.966z"/>
		<path d="M438.787,102.991h-7.368v5.743h8.237v2.93h-11.805V92.113h11.37v2.93h-7.803v5.047h7.368V102.991z"/>
		<path d="M442.757,92.113h3.567v16.563h8.035v2.987h-11.603V92.113z"/>
		<path d="M234.568,119.113h3.568v16.563h8.035v2.987h-11.604V119.113z"/>
		<path d="M252.869,133.124l-1.684,5.54h-3.684l6.266-19.551h4.555l6.352,19.551h-3.857l-1.77-5.54H252.869z M258.467,130.425
			l-1.537-4.814c-0.377-1.189-0.696-2.524-0.986-3.655h-0.059c-0.289,1.131-0.609,2.494-0.928,3.655l-1.508,4.814H258.467z"/>
		<path d="M266.178,136.691l9.979-14.532v-0.087h-9.108v-2.959h13.749v2.089l-9.862,14.416v0.087h10.007v2.959h-14.764V136.691z"/>
		<path d="M287.436,119.113v19.551h-3.567v-19.551H287.436z"/>
		<path d="M308.841,128.685c0,6.556-3.974,10.298-9.341,10.298c-5.54,0-9.021-4.235-9.021-9.949c0-6.034,3.8-10.269,9.312-10.269
			C305.477,118.765,308.841,123.086,308.841,128.685z M294.25,128.946c0,4.003,2.002,7.165,5.424,7.165
			c3.453,0,5.396-3.22,5.396-7.31c0-3.684-1.828-7.165-5.396-7.165C296.136,121.636,294.25,124.915,294.25,128.946z"/>
		<path d="M334.36,130.687c-0.116-2.524-0.261-5.569-0.231-8.209h-0.088c-0.638,2.378-1.45,5.018-2.32,7.483l-2.871,8.47h-2.727
			l-2.611-8.354c-0.754-2.495-1.45-5.163-1.973-7.6h-0.058c-0.087,2.553-0.203,5.656-0.349,8.324l-0.435,7.861h-3.336l1.306-19.551
			h4.699l2.553,7.861c0.695,2.291,1.305,4.611,1.798,6.787h0.087c0.521-2.117,1.189-4.525,1.943-6.816l2.697-7.832h4.642
			l1.132,19.551h-3.481L334.36,130.687z"/>
		<path d="M352.744,129.991h-7.367v5.743h8.238v2.93h-11.807v-19.551h11.371v2.93h-7.803v5.047h7.367V129.991z"/>
		<path d="M356.715,119.403c1.363-0.261,3.336-0.435,5.396-0.435c2.813,0,4.699,0.464,6.034,1.566
			c1.072,0.898,1.682,2.262,1.682,3.944c0,2.523-1.711,4.235-3.568,4.873v0.087c1.422,0.522,2.264,1.886,2.728,3.771
			c0.638,2.437,1.16,4.699,1.537,5.453h-3.655c-0.289-0.58-0.783-2.176-1.305-4.612c-0.58-2.553-1.479-3.364-3.51-3.423h-1.799
			v8.035h-3.539V119.403z M360.254,128.018h2.117c2.408,0,3.887-1.276,3.887-3.22c0-2.117-1.479-3.133-3.799-3.133
			c-1.132,0-1.857,0.087-2.205,0.174V128.018z"/>
		<path d="M376.754,119.113v19.551h-3.567v-19.551H376.754z"/>
		<path d="M380.813,119.374c1.595-0.231,3.567-0.405,5.685-0.405c3.656,0,6.15,0.754,7.949,2.262
			c1.914,1.538,3.074,3.888,3.074,7.194c0,3.51-1.189,6.091-3.046,7.773c-1.943,1.77-5.048,2.669-8.847,2.669
			c-2.061,0-3.627-0.116-4.815-0.261V119.374z M384.381,135.966c0.494,0.087,1.248,0.087,1.973,0.087
			c4.641,0.028,7.396-2.553,7.396-7.513c0.029-4.293-2.465-6.788-6.932-6.788c-1.132,0-1.915,0.087-2.438,0.203V135.966z"/>
		<path d="M404.16,119.113v19.551h-3.568v-19.551H404.16z"/>
		<path d="M425.564,128.685c0,6.556-3.975,10.298-9.34,10.298c-5.541,0-9.021-4.235-9.021-9.949c0-6.034,3.8-10.269,9.311-10.269
			C422.199,118.765,425.564,123.086,425.564,128.685z M410.974,128.946c0,4.003,2.001,7.165,5.425,7.165
			c3.451,0,5.395-3.22,5.395-7.31c0-3.684-1.827-7.165-5.395-7.165C412.859,121.636,410.974,124.915,410.974,128.946z"/>
		<path d="M428.576,138.664v-19.551h4.09l5.047,8.383c1.277,2.176,2.438,4.438,3.336,6.556h0.059
			c-0.262-2.61-0.319-5.134-0.319-8.122v-6.816h3.308v19.551h-3.713l-5.105-8.615c-1.248-2.146-2.523-4.525-3.48-6.729l-0.117,0.029
			c0.146,2.523,0.203,5.104,0.203,8.325v6.99H428.576z"/>
		<path d="M452.097,133.124l-1.683,5.54h-3.684l6.266-19.551h4.554l6.353,19.551h-3.857l-1.77-5.54H452.097z M457.695,130.425
			l-1.537-4.814c-0.378-1.189-0.697-2.524-0.986-3.655h-0.059c-0.29,1.131-0.609,2.494-0.928,3.655l-1.509,4.814H457.695z"/>
		<path d="M466.596,119.113h3.567v16.563h8.034v2.987h-11.602V119.113z"/>
		<path d="M491.799,129.991h-7.367v5.743h8.237v2.93h-11.806v-19.551h11.371v2.93h-7.803v5.047h7.367V129.991z"/>
	</g>
</g>
<g id="Livello_4">
	<g>
		<defs>
			<rect id="SVGID_1_" x="-49.039" y="-110.823" width="297.639" height="420.945"/>
		</defs>
		<clipPath id="SVGID_2_">
			<use xlink:href="#SVGID_1_"  overflow="visible"/>
		</clipPath>
		<g clip-path="url(#SVGID_2_)">
			<defs>
				<rect id="SVGID_3_" x="-49.039" y="-110.823" width="297.639" height="420.945"/>
			</defs>
			<clipPath id="SVGID_4_">
				<use xlink:href="#SVGID_3_"  overflow="visible"/>
			</clipPath>
			<path clip-path="url(#SVGID_4_)" fill-rule="evenodd" clip-rule="evenodd" fill="#9C9E9F" d="M0.582,99.788
				C0.582,44.993,45,0.575,99.795,0.575s99.213,44.418,99.213,99.213c0,54.794-44.418,99.212-99.213,99.212
				S0.582,154.582,0.582,99.788"/>
		</g>
		<g clip-path="url(#SVGID_2_)">
			<defs>
				<path id="SVGID_5_" d="M2.553,99.651c0,53.698,43.529,97.228,97.229,97.228c53.697,0,97.227-43.529,97.227-97.228
					c0-53.699-43.529-97.229-97.227-97.229C46.082,2.421,2.553,45.952,2.553,99.651"/>
			</defs>
			<clipPath id="SVGID_6_">
				<use xlink:href="#SVGID_5_"  overflow="visible"/>
			</clipPath>
			
				<linearGradient id="SVGID_7_" gradientUnits="userSpaceOnUse" x1="-201.3174" y1="520.3579" x2="-200.8174" y2="520.3579" gradientTransform="matrix(0 388.9131 388.9131 0 -202274.1875 78297.1953)">
				<stop  offset="0" style="stop-color:#FFFFFF"/>
				<stop  offset="0.4365" style="stop-color:#FCFCFC"/>
				<stop  offset="0.7633" style="stop-color:#F2F2F1"/>
				<stop  offset="1" style="stop-color:#E5E5E4"/>
			</linearGradient>
			<rect x="2.553" y="2.421" clip-path="url(#SVGID_6_)" fill="url(#SVGID_7_)" width="194.455" height="194.457"/>
		</g>
		<g clip-path="url(#SVGID_2_)">
			<defs>
				<path id="SVGID_8_" d="M24.24,99.65c0,41.72,33.82,75.539,75.539,75.539c41.721,0,75.541-33.819,75.541-75.539
					c0-41.719-33.82-75.539-75.541-75.539C58.061,24.111,24.24,57.931,24.24,99.65"/>
			</defs>
			<clipPath id="SVGID_9_">
				<use xlink:href="#SVGID_8_"  overflow="visible"/>
			</clipPath>
			
				<linearGradient id="SVGID_10_" gradientUnits="userSpaceOnUse" x1="-201.3164" y1="520.3608" x2="-200.8164" y2="520.3608" gradientTransform="matrix(0 302.1557 302.1557 0 -157130.375 60852.8867)">
				<stop  offset="0" style="stop-color:#F3F3F1"/>
				<stop  offset="1" style="stop-color:#EFEDE9"/>
			</linearGradient>
			<rect x="24.24" y="24.111" clip-path="url(#SVGID_9_)" fill="url(#SVGID_10_)" width="151.08" height="151.078"/>
		</g>
		<g clip-path="url(#SVGID_2_)">
			<defs>
				<rect id="SVGID_11_" x="-49.039" y="-110.823" width="297.639" height="420.945"/>
			</defs>
			<clipPath id="SVGID_12_">
				<use xlink:href="#SVGID_11_"  overflow="visible"/>
			</clipPath>
			<g opacity="0.07" clip-path="url(#SVGID_12_)">
				<g>
					<defs>
						<rect id="SVGID_13_" x="0.568" y="0.583" width="198.425" height="198.426"/>
					</defs>
					<clipPath id="SVGID_14_">
						<use xlink:href="#SVGID_13_"  overflow="visible"/>
					</clipPath>
					<g clip-path="url(#SVGID_14_)">
						<defs>
							<path id="SVGID_15_" d="M0.568,99.795c0-54.794,44.418-99.213,99.213-99.213c54.794,0,99.212,44.418,99.212,99.213
								c0,54.794-44.418,99.213-99.212,99.213C44.986,199.008,0.568,154.589,0.568,99.795"/>
						</defs>
						<clipPath id="SVGID_16_">
							<use xlink:href="#SVGID_15_"  overflow="visible"/>
						</clipPath>
						
							<linearGradient id="SVGID_17_" gradientUnits="userSpaceOnUse" x1="-201.3174" y1="520.3579" x2="-200.8174" y2="520.3579" gradientTransform="matrix(0 396.8505 396.8505 0 -206404.6563 79893.4297)">
							<stop  offset="0" style="stop-color:#FFFFFF"/>
							<stop  offset="0.3014" style="stop-color:#FCFCFC"/>
							<stop  offset="0.4399" style="stop-color:#F1F0F0"/>
							<stop  offset="0.5451" style="stop-color:#DEDDDE"/>
							<stop  offset="0.6335" style="stop-color:#C5C3C5"/>
							<stop  offset="0.7114" style="stop-color:#A6A3A6"/>
							<stop  offset="0.7818" style="stop-color:#827F84"/>
							<stop  offset="0.8467" style="stop-color:#5D5A60"/>
							<stop  offset="0.9072" style="stop-color:#37373D"/>
							<stop  offset="0.962" style="stop-color:#15181E"/>
							<stop  offset="1" style="stop-color:#000204"/>
						</linearGradient>
						<rect x="0.568" y="0.583" clip-path="url(#SVGID_16_)" fill="url(#SVGID_17_)" width="198.425" height="198.426"/>
					</g>
				</g>
			</g>
			<path clip-path="url(#SVGID_12_)" fill-rule="evenodd" clip-rule="evenodd" fill="#4C4C3B" d="M82.939,127.984
				c-0.672,1.219-1.496,2.381-2.471,3.464c-4.162,4.605-10.141,6.61-15.855,5.903c-0.514-0.064-1.07-0.223-1.586-0.248
				c-0.271-0.016,0.496-0.239,0.746-0.352c1.179-0.529,2.381-0.917,3.592-1.182c1.344-0.288,2.68-0.721,3.988-1.306
				c2.061-0.917,3.887-2.148,5.467-3.588L82.939,127.984z M73.756,118.894c-1.113,0.844-2.338,1.568-3.67,2.159
				c-5.678,2.52-11.957,1.927-16.893-1.04c-0.439-0.265-0.889-0.637-1.344-0.871c-0.244-0.124,0.549-0.021,0.826-0.021
				c1.287,0,2.545,0.13,3.76,0.382c1.344,0.281,2.744,0.429,4.178,0.426c2.257-0.002,4.428-0.388,6.455-1.061L73.756,118.894z
				 M69.066,106.859c-1.355,0.32-2.77,0.486-4.229,0.486c-6.215-0.006-11.707-3.097-15.008-7.808
				c-0.293-0.423-0.553-0.944-0.873-1.342c-0.174-0.212,0.508,0.203,0.762,0.313c1.178,0.524,2.271,1.151,3.277,1.879
				c1.117,0.801,2.333,1.502,3.645,2.084c2.061,0.915,4.202,1.445,6.33,1.652L69.066,106.859z M69.691,93.963
				c-1.373-0.258-2.732-0.679-4.064-1.271c-5.676-2.529-9.432-7.582-10.527-13.229c-0.094-0.507-0.117-1.084-0.252-1.58
				c-0.07-0.266,0.383,0.396,0.57,0.6c0.859,0.954,1.604,1.973,2.229,3.044c0.691,1.185,1.516,2.319,2.477,3.382
				c1.515,1.674,3.252,3.027,5.111,4.078L69.691,93.963z M75.512,82.437c-1.145-0.793-2.217-1.731-3.188-2.812
				c-4.158-4.612-5.533-10.756-4.234-16.358c0.123-0.499,0.338-1.04,0.418-1.547c0.043-0.271,0.189,0.516,0.271,0.776
				c0.401,1.227,0.664,2.459,0.8,3.689c0.147,1.363,0.44,2.737,0.886,4.096c0.699,2.144,1.735,4.084,3.006,5.802L75.512,82.437z
				 M85.531,74.27c-0.723-1.188-1.322-2.48-1.771-3.864c-1.914-5.901-0.668-12.072,2.801-16.662c0.314-0.408,0.73-0.814,1.014-1.244
				c0.146-0.228-0.039,0.546-0.068,0.822c-0.135,1.28-0.396,2.512-0.773,3.691c-0.42,1.308-0.713,2.678-0.863,4.102
				c-0.232,2.245-0.076,4.437,0.387,6.523L85.531,74.27z M98.01,70.876c-0.176-1.381-0.197-2.803-0.042-4.248
				c0.655-6.17,4.309-11.3,9.347-14.085c0.455-0.243,0.998-0.446,1.431-0.724c0.23-0.148-0.257,0.483-0.394,0.721
				c-0.645,1.116-1.386,2.138-2.211,3.06c-0.918,1.024-1.746,2.16-2.461,3.397c-1.126,1.954-1.877,4.02-2.307,6.115L98.01,70.876z
				 M110.793,72.844c0.401-1.335,0.964-2.642,1.691-3.898c3.112-5.372,8.54-8.575,14.28-9.071c0.513-0.043,1.093-0.002,1.604-0.085
				c0.27-0.039-0.433,0.336-0.658,0.5c-1.043,0.759-2.134,1.387-3.268,1.897c-1.251,0.564-2.471,1.261-3.628,2.104
				c-1.826,1.329-3.354,2.911-4.599,4.651L110.793,72.844z M121.668,79.828c0.91-1.055,1.959-2.021,3.137-2.873
				c5.031-3.642,11.295-4.365,16.741-2.488c0.484,0.17,0.999,0.44,1.497,0.572c0.264,0.072-0.534,0.134-0.803,0.191
				c-1.262,0.271-2.516,0.4-3.758,0.405c-1.376,0.009-2.773,0.151-4.172,0.451c-2.209,0.473-4.252,1.297-6.099,2.381L121.668,79.828
				z M128.759,90.625c1.261-0.591,2.61-1.049,4.037-1.352c6.08-1.286,12.096,0.6,16.306,4.523c0.375,0.354,0.735,0.808,1.135,1.132
				c0.212,0.173-0.542-0.095-0.813-0.151c-1.259-0.266-2.46-0.654-3.595-1.152c-1.261-0.555-2.598-0.99-3.998-1.285
				c-2.208-0.466-4.409-0.539-6.538-0.301L128.759,90.625z M130.836,103.368c1.395-0.028,2.814,0.101,4.238,0.405
				c6.08,1.295,10.807,5.455,13.057,10.75c0.193,0.477,0.339,1.041,0.572,1.497c0.124,0.243-0.456-0.308-0.679-0.472
				c-1.046-0.75-1.983-1.596-2.817-2.512c-0.925-1.016-1.969-1.958-3.128-2.797c-1.828-1.32-3.812-2.283-5.85-2.928L130.836,103.368
				z M127.539,115.851c1.287,0.542,2.53,1.236,3.708,2.09c5.026,3.648,7.649,9.375,7.546,15.125
				c-0.013,0.51-0.111,1.086-0.086,1.597c0.016,0.272-0.289-0.466-0.427-0.702c-0.647-1.115-1.163-2.264-1.55-3.443
				c-0.429-1.302-1.001-2.587-1.718-3.819c-1.132-1.957-2.551-3.634-4.153-5.054L127.539,115.851z M119.444,125.921
				c0.956,1.01,1.808,2.149,2.535,3.41c3.103,5.373,3.17,11.671,0.73,16.881c-0.22,0.463-0.544,0.947-0.73,1.427
				c-0.099,0.254-0.077-0.544-0.105-0.821c-0.135-1.275-0.135-2.537-0.011-3.77c0.137-1.365,0.139-2.769-0.01-4.189
				c-0.241-2.243-0.853-4.355-1.738-6.304L119.444,125.921z M107.945,131.831c0.458,1.31,0.773,2.7,0.924,4.143
				c0.645,6.175-1.861,11.948-6.212,15.718c-0.388,0.338-0.884,0.648-1.245,1.006c-0.194,0.195,0.149-0.523,0.235-0.788
				c0.398-1.223,0.911-2.374,1.528-3.448c0.68-1.191,1.255-2.473,1.695-3.832c0.693-2.146,1-4.325,0.981-6.461L107.945,131.831z
				 M95.031,132.56c-0.117,1.387-0.391,2.781-0.844,4.162c-1.925,5.9-6.567,10.16-12.078,11.836
				c-0.492,0.146-1.068,0.234-1.549,0.414c-0.256,0.099,0.354-0.419,0.537-0.626c0.861-0.959,1.799-1.8,2.799-2.532
				c1.107-0.811,2.157-1.746,3.113-2.813c1.509-1.678,2.674-3.543,3.528-5.503L95.031,132.56z M87.377,130
				c-0.759,1.728-1.803,3.359-3.127,4.838c-4.139,4.611-10.09,6.61-15.791,5.891c-6.316-0.844-12.92,1.352-17.506,6.463
				c-0.449,0.502-0.869,1.018-1.262,1.551c0.029-6.952,4.039-13.582,10.781-16.594c1.17-0.521,2.367-0.912,3.576-1.172
				c1.338-0.29,2.67-0.719,3.973-1.3c3.721-1.665,6.688-4.33,8.727-7.538c-1.395,1.267-3.01,2.333-4.819,3.146
				c-5.647,2.522-11.896,1.919-16.812-1.067c-5.426-3.351-12.352-4.034-18.611-1.237c-0.609,0.273-1.205,0.574-1.777,0.902
				c2.846-6.34,9.191-10.763,16.572-10.763c1.285,0,2.533,0.136,3.738,0.39c1.342,0.284,2.734,0.434,4.16,0.434
				c4.074-0.002,7.863-1.227,11.025-3.33c-1.787,0.591-3.695,0.909-5.676,0.909c-6.184,0.003-11.643-3.099-14.924-7.833
				c-3.598-5.273-9.645-8.729-16.494-8.726c-0.672,0-1.338,0.034-1.992,0.099c5.169-4.636,12.758-6.081,19.499-3.072
				c1.171,0.523,2.259,1.156,3.261,1.883c1.107,0.804,2.316,1.51,3.619,2.092c3.722,1.663,7.681,2.09,11.418,1.46
				c-1.871-0.191-3.74-0.681-5.55-1.487c-5.647-2.522-9.38-7.585-10.456-13.248c-1.147-6.287-5.272-11.91-11.529-14.705
				c-0.613-0.272-1.234-0.516-1.855-0.721c6.598-2.125,14.114-0.35,19.051,5.152c0.859,0.957,1.598,1.978,2.213,3.049
				c0.689,1.188,1.508,2.325,2.463,3.389c2.725,3.039,6.166,5.043,9.838,5.993c-1.631-0.938-3.145-2.146-4.467-3.623
				c-4.139-4.608-5.492-10.756-4.182-16.37c1.502-6.215,0.015-13.038-4.568-18.142c-0.449-0.505-0.92-0.976-1.406-1.419
				c6.891,0.751,13.035,5.443,15.316,12.484c0.395,1.225,0.656,2.457,0.785,3.688c0.145,1.366,0.432,2.74,0.873,4.102
				c1.258,3.886,3.588,7.124,6.556,9.489c-1.108-1.522-1.999-3.243-2.61-5.133c-1.911-5.9-0.654-12.07,2.818-16.666
				c3.889-5.064,5.297-11.903,3.182-18.442c-0.209-0.638-0.445-1.263-0.707-1.867c5.986,3.498,9.697,10.294,8.926,17.655
				c-0.135,1.28-0.396,2.514-0.779,3.694c-0.42,1.306-0.715,2.68-0.865,4.101c-0.424,4.068,0.392,7.977,2.145,11.349
				c-0.398-1.843-0.514-3.778-0.307-5.756c0.648-6.17,4.297-11.295,9.333-14.076c5.604-3.043,9.662-8.717,10.379-15.552
				c0.07-0.671,0.106-1.336,0.108-1.998c4.053,5.641,4.69,13.364,1,19.779c-0.643,1.113-1.383,2.133-2.206,3.053
				c-0.917,1.024-1.743,2.158-2.458,3.398c-2.035,3.54-2.877,7.445-2.644,11.241c0.386-1.844,1.064-3.661,2.056-5.385
				c3.094-5.371,8.504-8.569,14.229-9.052c6.353-0.491,12.359-4.021,15.786-9.977c0.336-0.582,0.639-1.176,0.91-1.776
				c1.414,6.804-1.134,14.123-7.105,18.477c-1.041,0.755-2.128,1.388-3.257,1.891c-1.248,0.562-2.463,1.263-3.617,2.103
				c-3.294,2.401-5.646,5.63-6.972,9.193c1.099-1.529,2.457-2.912,4.061-4.082c5-3.647,11.238-4.361,16.666-2.465
				c6,2.145,12.918,1.372,18.46-2.67c0.544-0.398,1.062-0.813,1.554-1.254c-1.469,6.795-6.764,12.441-13.982,13.982
				c-1.254,0.269-2.502,0.397-3.737,0.399c-1.369,0.002-2.763,0.146-4.156,0.446c-3.985,0.849-7.439,2.838-10.093,5.552
				c1.619-0.948,3.423-1.657,5.359-2.07c6.049-1.292,12.033,0.602,16.221,4.551c4.614,4.405,11.246,6.522,17.944,5.093
				c0.657-0.141,1.301-0.313,1.93-0.513c-4.097,5.611-11.223,8.606-18.439,7.068c-1.254-0.266-2.45-0.657-3.576-1.16
				c-1.253-0.555-2.584-0.99-3.978-1.289c-3.985-0.85-7.944-0.442-11.471,0.955c1.867-0.203,3.799-0.12,5.737,0.295
				c6.044,1.288,10.744,5.463,12.971,10.777c2.427,5.912,7.624,10.549,14.327,11.979c0.656,0.139,1.313,0.246,1.966,0.315
				c-6.016,3.457-13.739,3.288-19.708-1.063c-1.036-0.756-1.969-1.604-2.797-2.521c-0.917-1.018-1.955-1.962-3.107-2.801
				c-3.297-2.403-7.077-3.646-10.865-3.806c1.789,0.573,3.517,1.438,5.119,2.605c5.003,3.646,7.603,9.379,7.481,15.144
				c-0.179,6.392,2.688,12.753,8.229,16.79c0.543,0.396,1.1,0.76,1.667,1.095c-6.893,0.7-13.882-2.605-17.566-9.017
				c-0.643-1.113-1.149-2.266-1.536-3.446c-0.424-1.302-0.989-2.591-1.701-3.824c-2.037-3.542-4.984-6.224-8.38-7.915
				c1.401,1.256,2.629,2.752,3.618,4.471c3.092,5.376,3.141,11.674,0.694,16.889c-2.756,5.77-2.714,12.75,0.708,18.7
				c0.338,0.587,0.697,1.147,1.081,1.683c-6.581-2.172-11.622-8.045-12.391-15.406c-0.135-1.285-0.132-2.543-0.005-3.775
				c0.14-1.367,0.145-2.771-0.003-4.192c-0.425-4.068-2.036-7.718-4.446-10.655c0.771,1.725,1.282,3.594,1.489,5.566
				c0.647,6.171-1.859,11.949-6.21,15.719c-4.852,4.143-7.646,10.538-6.932,17.375c0.07,0.668,0.174,1.33,0.306,1.973
				c-5.13-4.666-7.356-12.09-5.073-19.13c0.396-1.229,0.909-2.378,1.525-3.452c0.682-1.194,1.256-2.473,1.696-3.835
				c1.261-3.884,1.271-7.876,0.259-11.541c0.006,1.884-0.282,3.8-0.896,5.689c-1.91,5.901-6.541,10.155-12.043,11.823
				c-6.111,1.807-11.254,6.51-13.375,13.05c-0.203,0.643-0.379,1.282-0.52,1.931c-2.795-6.363-1.818-14.052,3.123-19.557
				c0.859-0.955,1.791-1.799,2.791-2.529c1.105-0.809,2.152-1.745,3.102-2.808C85.189,137.409,86.816,133.762,87.377,130"/>
			<path clip-path="url(#SVGID_12_)" fill="none" stroke="#000000" stroke-width="0.25" stroke-miterlimit="3.864" d="
				M82.939,127.984c-0.672,1.219-1.496,2.381-2.471,3.464c-4.162,4.605-10.141,6.61-15.855,5.903
				c-0.514-0.064-1.07-0.223-1.586-0.248c-0.271-0.016,0.496-0.239,0.746-0.352c1.179-0.529,2.381-0.917,3.592-1.182
				c1.344-0.288,2.68-0.721,3.988-1.306c2.061-0.917,3.887-2.148,5.467-3.588L82.939,127.984z M73.756,118.894
				c-1.113,0.844-2.338,1.568-3.67,2.159c-5.678,2.52-11.957,1.927-16.893-1.04c-0.439-0.265-0.889-0.637-1.344-0.871
				c-0.244-0.124,0.549-0.021,0.826-0.021c1.287,0,2.545,0.13,3.76,0.382c1.344,0.281,2.744,0.429,4.178,0.426
				c2.257-0.002,4.428-0.388,6.455-1.061L73.756,118.894z M69.066,106.859c-1.355,0.32-2.77,0.486-4.229,0.486
				c-6.215-0.006-11.707-3.097-15.008-7.808c-0.293-0.423-0.553-0.944-0.873-1.342c-0.174-0.212,0.508,0.203,0.762,0.313
				c1.178,0.524,2.271,1.151,3.277,1.879c1.117,0.801,2.333,1.502,3.645,2.084c2.061,0.915,4.202,1.445,6.33,1.652L69.066,106.859z
				 M69.691,93.963c-1.373-0.258-2.732-0.679-4.064-1.271c-5.676-2.529-9.432-7.582-10.527-13.229
				c-0.094-0.507-0.117-1.084-0.252-1.58c-0.07-0.266,0.383,0.396,0.57,0.6c0.859,0.954,1.604,1.973,2.229,3.044
				c0.691,1.185,1.516,2.319,2.477,3.382c1.515,1.674,3.252,3.027,5.111,4.078L69.691,93.963z M75.512,82.437
				c-1.145-0.793-2.217-1.731-3.188-2.812c-4.158-4.612-5.533-10.756-4.234-16.358c0.123-0.499,0.338-1.04,0.418-1.547
				c0.043-0.271,0.189,0.516,0.271,0.776c0.401,1.227,0.664,2.459,0.8,3.689c0.147,1.363,0.44,2.737,0.886,4.096
				c0.699,2.144,1.735,4.084,3.006,5.802L75.512,82.437z M85.531,74.27c-0.723-1.188-1.322-2.48-1.771-3.864
				c-1.914-5.901-0.668-12.072,2.801-16.662c0.314-0.408,0.73-0.814,1.014-1.244c0.146-0.228-0.039,0.546-0.068,0.822
				c-0.135,1.28-0.396,2.512-0.773,3.691c-0.42,1.308-0.713,2.678-0.863,4.102c-0.232,2.245-0.076,4.437,0.387,6.523L85.531,74.27z
				 M98.01,70.876c-0.176-1.381-0.197-2.803-0.042-4.248c0.655-6.17,4.309-11.3,9.347-14.085c0.455-0.243,0.998-0.446,1.431-0.724
				c0.23-0.148-0.257,0.483-0.394,0.721c-0.645,1.116-1.386,2.138-2.211,3.06c-0.918,1.024-1.746,2.16-2.461,3.397
				c-1.126,1.954-1.877,4.02-2.307,6.115L98.01,70.876z M110.793,72.844c0.401-1.335,0.964-2.642,1.691-3.898
				c3.112-5.372,8.54-8.575,14.28-9.071c0.513-0.043,1.093-0.002,1.604-0.085c0.27-0.039-0.433,0.336-0.658,0.5
				c-1.043,0.759-2.134,1.387-3.268,1.897c-1.251,0.564-2.471,1.261-3.628,2.104c-1.826,1.329-3.354,2.911-4.599,4.651
				L110.793,72.844z M121.668,79.828c0.91-1.055,1.959-2.021,3.137-2.873c5.031-3.642,11.295-4.365,16.741-2.488
				c0.484,0.17,0.999,0.44,1.497,0.572c0.264,0.072-0.534,0.134-0.803,0.191c-1.262,0.271-2.516,0.4-3.758,0.405
				c-1.376,0.009-2.773,0.151-4.172,0.451c-2.209,0.473-4.252,1.297-6.099,2.381L121.668,79.828z M128.759,90.625
				c1.261-0.591,2.61-1.049,4.037-1.352c6.08-1.286,12.096,0.6,16.306,4.523c0.375,0.354,0.735,0.808,1.135,1.132
				c0.212,0.173-0.542-0.095-0.813-0.151c-1.259-0.266-2.46-0.654-3.595-1.152c-1.261-0.555-2.598-0.99-3.998-1.285
				c-2.208-0.466-4.409-0.539-6.538-0.301L128.759,90.625z M130.836,103.368c1.395-0.028,2.814,0.101,4.238,0.405
				c6.08,1.295,10.807,5.455,13.057,10.75c0.193,0.477,0.339,1.041,0.572,1.497c0.124,0.243-0.456-0.308-0.679-0.472
				c-1.046-0.75-1.983-1.596-2.817-2.512c-0.925-1.016-1.969-1.958-3.128-2.797c-1.828-1.32-3.812-2.283-5.85-2.928L130.836,103.368
				z M127.539,115.851c1.287,0.542,2.53,1.236,3.708,2.09c5.026,3.648,7.649,9.375,7.546,15.125
				c-0.013,0.51-0.111,1.086-0.086,1.597c0.016,0.272-0.289-0.466-0.427-0.702c-0.647-1.115-1.163-2.264-1.55-3.443
				c-0.429-1.302-1.001-2.587-1.718-3.819c-1.132-1.957-2.551-3.634-4.153-5.054L127.539,115.851z M119.444,125.921
				c0.956,1.01,1.808,2.149,2.535,3.41c3.103,5.373,3.17,11.671,0.73,16.881c-0.22,0.463-0.544,0.947-0.73,1.427
				c-0.099,0.254-0.077-0.544-0.105-0.821c-0.135-1.275-0.135-2.537-0.011-3.77c0.137-1.365,0.139-2.769-0.01-4.189
				c-0.241-2.243-0.853-4.355-1.738-6.304L119.444,125.921z M107.945,131.831c0.458,1.31,0.773,2.7,0.924,4.143
				c0.645,6.175-1.861,11.948-6.212,15.718c-0.388,0.338-0.884,0.648-1.245,1.006c-0.194,0.195,0.149-0.523,0.235-0.788
				c0.398-1.223,0.911-2.374,1.528-3.448c0.68-1.191,1.255-2.473,1.695-3.832c0.693-2.146,1-4.325,0.981-6.461L107.945,131.831z
				 M95.031,132.56c-0.117,1.387-0.391,2.781-0.844,4.162c-1.925,5.9-6.567,10.16-12.078,11.836
				c-0.492,0.146-1.068,0.234-1.549,0.414c-0.256,0.099,0.354-0.419,0.537-0.626c0.861-0.959,1.799-1.8,2.799-2.532
				c1.107-0.811,2.157-1.746,3.113-2.813c1.509-1.678,2.674-3.543,3.528-5.503L95.031,132.56z M87.377,130
				c-0.759,1.728-1.803,3.359-3.127,4.838c-4.139,4.611-10.09,6.61-15.791,5.891c-6.316-0.844-12.92,1.352-17.506,6.463
				c-0.449,0.502-0.869,1.018-1.262,1.551c0.029-6.952,4.039-13.582,10.781-16.594c1.17-0.521,2.367-0.912,3.576-1.172
				c1.338-0.29,2.67-0.719,3.973-1.3c3.721-1.665,6.688-4.33,8.727-7.538c-1.395,1.267-3.01,2.333-4.819,3.146
				c-5.647,2.522-11.896,1.919-16.812-1.067c-5.426-3.351-12.352-4.034-18.611-1.237c-0.609,0.273-1.205,0.574-1.777,0.902
				c2.846-6.34,9.191-10.763,16.572-10.763c1.285,0,2.533,0.136,3.738,0.39c1.342,0.284,2.734,0.434,4.16,0.434
				c4.074-0.002,7.863-1.227,11.025-3.33c-1.787,0.591-3.695,0.909-5.676,0.909c-6.184,0.003-11.643-3.099-14.924-7.833
				c-3.598-5.273-9.645-8.729-16.494-8.726c-0.672,0-1.338,0.034-1.992,0.099c5.169-4.636,12.758-6.081,19.499-3.072
				c1.171,0.523,2.259,1.156,3.261,1.883c1.107,0.804,2.316,1.51,3.619,2.092c3.722,1.663,7.681,2.09,11.418,1.46
				c-1.871-0.191-3.74-0.681-5.55-1.487c-5.647-2.522-9.38-7.585-10.456-13.248c-1.147-6.287-5.272-11.91-11.529-14.705
				c-0.613-0.272-1.234-0.516-1.855-0.721c6.598-2.125,14.114-0.35,19.051,5.152c0.859,0.957,1.598,1.978,2.213,3.049
				c0.689,1.188,1.508,2.325,2.463,3.389c2.725,3.039,6.166,5.043,9.838,5.993c-1.631-0.938-3.145-2.146-4.467-3.623
				c-4.139-4.608-5.492-10.756-4.182-16.37c1.502-6.215,0.015-13.038-4.568-18.142c-0.449-0.505-0.92-0.976-1.406-1.419
				c6.891,0.751,13.035,5.443,15.316,12.484c0.395,1.225,0.656,2.457,0.785,3.688c0.145,1.366,0.432,2.74,0.873,4.102
				c1.258,3.886,3.588,7.124,6.556,9.489c-1.108-1.522-1.999-3.243-2.61-5.133c-1.911-5.9-0.654-12.07,2.818-16.666
				c3.889-5.064,5.297-11.903,3.182-18.442c-0.209-0.638-0.445-1.263-0.707-1.867c5.986,3.498,9.697,10.294,8.926,17.655
				c-0.135,1.28-0.396,2.514-0.779,3.694c-0.42,1.306-0.715,2.68-0.865,4.101c-0.424,4.068,0.392,7.977,2.145,11.349
				c-0.398-1.843-0.514-3.778-0.307-5.756c0.648-6.17,4.297-11.295,9.333-14.076c5.604-3.043,9.662-8.717,10.379-15.552
				c0.07-0.671,0.106-1.336,0.108-1.998c4.053,5.641,4.69,13.364,1,19.779c-0.643,1.113-1.383,2.133-2.206,3.053
				c-0.917,1.024-1.743,2.158-2.458,3.398c-2.035,3.54-2.877,7.445-2.644,11.241c0.386-1.844,1.064-3.661,2.056-5.385
				c3.094-5.371,8.504-8.569,14.229-9.052c6.353-0.491,12.359-4.021,15.786-9.977c0.336-0.582,0.639-1.176,0.91-1.776
				c1.414,6.804-1.134,14.123-7.105,18.477c-1.041,0.755-2.128,1.388-3.257,1.891c-1.248,0.562-2.463,1.263-3.617,2.103
				c-3.294,2.401-5.646,5.63-6.972,9.193c1.099-1.529,2.457-2.912,4.061-4.082c5-3.647,11.238-4.361,16.666-2.465
				c6,2.145,12.918,1.372,18.46-2.67c0.544-0.398,1.062-0.813,1.554-1.254c-1.469,6.795-6.764,12.441-13.982,13.982
				c-1.254,0.269-2.502,0.397-3.737,0.399c-1.369,0.002-2.763,0.146-4.156,0.446c-3.985,0.849-7.439,2.838-10.093,5.552
				c1.619-0.948,3.423-1.657,5.359-2.07c6.049-1.292,12.033,0.602,16.221,4.551c4.614,4.405,11.246,6.522,17.944,5.093
				c0.657-0.141,1.301-0.313,1.93-0.513c-4.097,5.611-11.223,8.606-18.439,7.068c-1.254-0.266-2.45-0.657-3.576-1.16
				c-1.253-0.555-2.584-0.99-3.978-1.289c-3.985-0.85-7.944-0.442-11.471,0.955c1.867-0.203,3.799-0.12,5.737,0.295
				c6.044,1.288,10.744,5.463,12.971,10.777c2.427,5.912,7.624,10.549,14.327,11.979c0.656,0.139,1.313,0.246,1.966,0.315
				c-6.016,3.457-13.739,3.288-19.708-1.063c-1.036-0.756-1.969-1.604-2.797-2.521c-0.917-1.018-1.955-1.962-3.107-2.801
				c-3.297-2.403-7.077-3.646-10.865-3.806c1.789,0.573,3.517,1.438,5.119,2.605c5.003,3.646,7.603,9.379,7.481,15.144
				c-0.179,6.392,2.688,12.753,8.229,16.79c0.543,0.396,1.1,0.76,1.667,1.095c-6.893,0.7-13.882-2.605-17.566-9.017
				c-0.643-1.113-1.149-2.266-1.536-3.446c-0.424-1.302-0.989-2.591-1.701-3.824c-2.037-3.542-4.984-6.224-8.38-7.915
				c1.401,1.256,2.629,2.752,3.618,4.471c3.092,5.376,3.141,11.674,0.694,16.889c-2.756,5.77-2.714,12.75,0.708,18.7
				c0.338,0.587,0.697,1.147,1.081,1.683c-6.581-2.172-11.622-8.045-12.391-15.406c-0.135-1.285-0.132-2.543-0.005-3.775
				c0.14-1.367,0.145-2.771-0.003-4.192c-0.425-4.068-2.036-7.718-4.446-10.655c0.771,1.725,1.282,3.594,1.489,5.566
				c0.647,6.171-1.859,11.949-6.21,15.719c-4.852,4.143-7.646,10.538-6.932,17.375c0.07,0.668,0.174,1.33,0.306,1.973
				c-5.13-4.666-7.356-12.09-5.073-19.13c0.396-1.229,0.909-2.378,1.525-3.452c0.682-1.194,1.256-2.473,1.696-3.835
				c1.261-3.884,1.271-7.876,0.259-11.541c0.006,1.884-0.282,3.8-0.896,5.689c-1.91,5.901-6.541,10.155-12.043,11.823
				c-6.111,1.807-11.254,6.51-13.375,13.05c-0.203,0.643-0.379,1.282-0.52,1.931c-2.795-6.363-1.818-14.052,3.123-19.557
				c0.859-0.955,1.791-1.799,2.791-2.529c1.105-0.809,2.152-1.745,3.102-2.808C85.189,137.409,86.816,133.762,87.377,130z"/>
			<polygon clip-path="url(#SVGID_12_)" fill-rule="evenodd" clip-rule="evenodd" fill="#4C4C3B" points="32.156,79.381 
				36.533,79.4 37.979,75.05 39.372,79.386 43.869,79.375 40.24,82.025 41.581,86.322 37.992,83.634 34.276,86.341 35.688,82 			"/>
			<polygon clip-path="url(#SVGID_12_)" fill="none" stroke="#000000" stroke-width="0.25" stroke-miterlimit="3.864" points="
				32.156,79.381 36.533,79.4 37.979,75.05 39.372,79.386 43.869,79.375 40.24,82.025 41.581,86.322 37.992,83.634 34.276,86.341 
				35.688,82 			"/>
			<polygon clip-path="url(#SVGID_12_)" fill-rule="evenodd" clip-rule="evenodd" fill="#4C4C3B" points="96.764,40.561 
				98.131,36.403 94.446,33.684 98.996,33.699 100.376,29.417 101.774,33.689 106.28,33.741 102.611,36.325 104.035,40.694 
				100.346,38.009 			"/>
			<polygon clip-path="url(#SVGID_12_)" fill="none" stroke="#000000" stroke-width="0.25" stroke-miterlimit="3.864" points="
				96.764,40.561 98.131,36.403 94.446,33.684 98.996,33.699 100.376,29.417 101.774,33.689 106.28,33.741 102.611,36.325 
				104.035,40.694 100.346,38.009 			"/>
			<polygon clip-path="url(#SVGID_12_)" fill-rule="evenodd" clip-rule="evenodd" fill="#4C4C3B" points="142.488,159.75 
				138.956,157.163 135.232,159.83 136.651,155.507 133.006,152.867 137.498,152.86 138.943,148.593 140.264,152.878 
				144.863,152.873 141.17,155.555 			"/>
			<polygon clip-path="url(#SVGID_12_)" fill="none" stroke="#000000" stroke-width="0.25" stroke-miterlimit="3.864" points="
				142.488,159.75 138.956,157.163 135.232,159.83 136.651,155.507 133.006,152.867 137.498,152.86 138.943,148.593 
				140.264,152.878 144.863,152.873 141.17,155.555 			"/>
			<polygon clip-path="url(#SVGID_12_)" fill-rule="evenodd" clip-rule="evenodd" fill="#4C4C3B" points="58.182,159.711 
				59.547,155.553 55.863,152.833 60.412,152.849 61.793,148.568 63.191,152.839 67.697,152.891 64.027,155.475 65.451,159.843 
				61.762,157.158 			"/>
			<polygon clip-path="url(#SVGID_12_)" fill="none" stroke="#000000" stroke-width="0.25" stroke-miterlimit="3.864" points="
				58.182,159.711 59.547,155.553 55.863,152.833 60.412,152.849 61.793,148.568 63.191,152.839 67.697,152.891 64.027,155.475 
				65.451,159.843 61.762,157.158 			"/>
			<polygon clip-path="url(#SVGID_12_)" fill-rule="evenodd" clip-rule="evenodd" fill="#4C4C3B" points="168.57,79.447 
				165.018,82.005 166.403,86.37 162.729,83.685 159.093,86.338 160.471,82.06 156.863,79.371 161.346,79.437 162.763,75.064 
				164.171,79.405 			"/>
			<polygon clip-path="url(#SVGID_12_)" fill="none" stroke="#000000" stroke-width="0.25" stroke-miterlimit="3.864" points="
				168.57,79.447 165.018,82.005 166.403,86.37 162.729,83.685 159.093,86.338 160.471,82.06 156.863,79.371 161.346,79.437 
				162.763,75.064 164.171,79.405 			"/>
			<g opacity="0.84" clip-path="url(#SVGID_12_)">
				<g>
					<defs>
						<rect id="SVGID_18_" x="8.63" y="8.331" width="182.745" height="182.104"/>
					</defs>
					<clipPath id="SVGID_19_">
						<use xlink:href="#SVGID_18_"  overflow="visible"/>
					</clipPath>
					<path clip-path="url(#SVGID_19_)" fill-rule="evenodd" clip-rule="evenodd" fill="#4C4C3B" d="M90.039,190.001l-0.968-0.121
						l0.704-5.725l-0.99,0.359l0.119-0.99c0.369-0.088,0.71-0.26,1.021-0.51l0.96,0.117L90.039,190.001z M120.227,186.216
						l-5.752,0.91l-0.16-1.027l5.752-0.912L120.227,186.216z M85.078,187.154l-5.714-1.109l0.198-1.025l5.715,1.111L85.078,187.154z
						 M122.965,177.822l8.348-2.879l3.23,9.385l-8.041,2.766l-0.487-1.412l6.72-2.311l-0.828-2.4l-4.668,1.607l-0.487-1.41
						l4.671-1.611l-0.947-2.748l-7.025,2.424L122.965,177.822z M131.318,174.923l7.112-3.47l4.349,8.917l-1.258,0.615l-3.691-7.578
						l-5.855,2.857L131.318,174.923z M143.57,172.781l4.361,2.932l-0.713-5.209L143.57,172.781z M138.896,171.322l1.297-0.809
						l2.006,1.367l4.809-3.011l-0.346-2.399l1.295-0.808l1.475,10.78l-1.492,0.932L138.896,171.322z M148.062,165.464l1.341-1.082
						l10.137,2.265l-5.121-6.329l1.084-0.881l6.246,7.715l-1.348,1.094l-10.131-2.275l5.123,6.328l-1.088,0.881L148.062,165.464z
						 M160.538,161.302c0.851,0.791,1.825,1.123,2.923,1.004c0.947-0.104,1.788-0.551,2.516-1.332
						c0.801-0.859,1.193-1.801,1.174-2.826c-0.01-1.018-0.414-1.9-1.207-2.639c-0.824-0.771-1.736-1.125-2.734-1.068
						c-0.996,0.059-1.902,0.531-2.723,1.411c-0.817,0.875-1.213,1.806-1.192,2.806C159.307,159.656,159.725,160.542,160.538,161.302
						 M159.544,162.363c-1.188-1.107-1.765-2.42-1.726-3.934c0.037-1.327,0.561-2.527,1.566-3.607
						c1.016-1.088,2.188-1.697,3.512-1.822c1.509-0.141,2.854,0.339,4.039,1.441c1.16,1.084,1.725,2.396,1.691,3.936
						c-0.035,1.348-0.551,2.555-1.547,3.625c-1.002,1.076-2.165,1.668-3.502,1.785C162.053,163.921,160.71,163.451,159.544,162.363
						 M163.924,150.026l0.841-1.116l7.925,5.969l-0.842,1.119L163.924,150.026z M169.488,144.765
						c-0.445,0.717-0.541,1.467-0.291,2.256c0.252,0.799,0.803,1.461,1.648,1.99c0.898,0.561,1.778,0.768,2.637,0.615
						c0.854-0.143,1.527-0.613,2.027-1.41l2.146-3.439l-5.881-3.674L169.488,144.765z M176.84,148.91
						c-0.778,1.242-1.785,1.984-3.02,2.223c-1.232,0.244-2.503-0.043-3.814-0.859c-1.197-0.75-1.957-1.76-2.274-3.029
						c-0.296-1.182-0.112-2.307,0.552-3.367l2.969-4.75l8.414,5.258L176.84,148.91z M172.049,137.527l0.611-1.258l8.922,4.35
						l-0.615,1.26L172.049,137.527z M179.674,133.73c-0.404,1.002-0.135,1.693,0.807,2.074c1.008,0.404,1.729,0.066,2.166-1.01
						l1.842-4.561l-2.923-1.181L179.674,133.73z M173.613,134.648l0.605-1.502l4.365-0.699l1.594-3.953l-3.508-1.413l0.525-1.301
						l9.201,3.718l-2.49,6.165c-0.332,0.825-0.857,1.361-1.572,1.619c-0.706,0.261-1.502,0.208-2.393-0.151
						c-0.777-0.314-1.327-0.76-1.65-1.332c-0.295-0.53-0.379-1.129-0.246-1.795L173.613,134.648z M177.396,125.078l2.285-8.527
						l9.584,2.567l-2.201,8.213l-1.444-0.386l1.843-6.864l-2.449-0.656l-1.28,4.772l-1.442-0.389l1.278-4.771l-2.808-0.752
						l-1.924,7.178L177.396,125.078z M179.912,115.518l0.17-1.388l8.055,0.99l-5.881-5.172l6.947-3.525l-8.049-1.023l0.17-1.387
						l9.85,1.212l-0.211,1.722l-6.453,3.291l5.461,4.768l-0.209,1.723L179.912,115.518z M186.383,98.019
						c1.157-0.08,2.068-0.565,2.727-1.453c0.572-0.762,0.82-1.678,0.744-2.748c-0.082-1.172-0.502-2.098-1.264-2.784
						c-0.756-0.687-1.674-0.994-2.76-0.916c-1.119,0.077-2.003,0.501-2.646,1.271c-0.631,0.767-0.904,1.753-0.822,2.952
						c0.084,1.193,0.498,2.121,1.24,2.787C184.346,97.8,185.271,98.097,186.383,98.019 M186.484,99.47
						c-1.621,0.115-2.975-0.359-4.055-1.419c-0.945-0.931-1.469-2.133-1.572-3.604c-0.104-1.489,0.25-2.758,1.068-3.813
						c0.92-1.198,2.189-1.856,3.805-1.969c1.584-0.111,2.928,0.37,4.027,1.447c0.965,0.943,1.5,2.142,1.602,3.6
						c0.102,1.466-0.262,2.724-1.084,3.779C189.334,98.701,188.068,99.361,186.484,99.47 M180.374,87.5l-0.218-1.38l9.797-1.551
						l0.219,1.378L180.374,87.5z M180.451,72.037l3.711-3.72l-5.248-0.292L180.451,72.037z M168.545,55.803l-4.646-6.402l8.027-5.83
						l0.823,1.132l-6.821,4.953l3.828,5.268L168.545,55.803z M163.461,48.654l-5.908-6.562l7.375-6.641l5.689,6.321l-1.109,1
						l-4.754-5.279l-1.887,1.694l3.309,3.669l-1.111,1l-3.306-3.67l-2.157,1.947l4.971,5.521L163.461,48.654z M154.834,37.653
						c0.643,0.541,1.371,0.741,2.186,0.603c0.83-0.142,1.563-0.592,2.201-1.354c0.682-0.812,1.008-1.654,0.979-2.526
						c-0.02-0.866-0.393-1.602-1.113-2.207l-3.105-2.603l-4.457,5.312L154.834,37.653z M177.943,75.858l-0.359-0.935l1.72-1.709
						l-2.032-5.297L174.85,67.8l-0.547-1.424l-3.477-6.66l8.762-4.658l0.656,1.235l-7.441,3.956l3.057,5.75l-0.787,0.419
						l10.092,0.564l0.631,1.645l-6.957,7.007l0.49-0.121l8.412,5.08l-1.656-6.656l1.445-0.361l2.119,8.488l-1.449,0.36l-8.416-5.081
						l1.762,7.064l-1.449,0.363l-2.217-8.899L177.943,75.858z M159.957,30.951c1.125,0.943,1.715,2.044,1.779,3.3
						c0.075,1.254-0.389,2.473-1.381,3.655c-0.91,1.084-2.017,1.695-3.315,1.831c-1.212,0.128-2.298-0.21-3.258-1.012l-4.288-3.603
						l6.375-7.601L159.957,30.951z M145.746,32.387l-7.568-4.549l5.111-8.503l7.287,4.379l-0.77,1.281l-6.088-3.661l-1.307,2.175
						l4.234,2.542l-0.771,1.281l-4.233-2.545l-1.496,2.492l6.369,3.83L145.746,32.387z M134.549,20.571
						c0.418-1.082,0.361-2.111-0.162-3.085c-0.45-0.841-1.18-1.45-2.178-1.834c-1.096-0.421-2.113-0.431-3.061-0.029
						c-0.939,0.392-1.604,1.096-1.994,2.111c-0.403,1.047-0.391,2.027,0.034,2.934c0.429,0.898,1.204,1.564,2.329,1.996
						c1.117,0.425,2.131,0.445,3.047,0.053C133.488,22.329,134.15,21.614,134.549,20.571 M135.91,21.093
						c-0.584,1.519-1.584,2.542-3.004,3.076c-1.242,0.46-2.554,0.43-3.93-0.099c-1.393-0.537-2.395-1.394-3.004-2.577
						c-0.697-1.345-0.757-2.771-0.18-4.282c0.57-1.484,1.574-2.497,3.017-3.041c1.263-0.475,2.579-0.45,3.939,0.072
						c1.37,0.527,2.358,1.385,2.968,2.58C136.414,18.186,136.477,19.61,135.91,21.093 M123.045,21.685l-1.673-0.415l-4.292-9.461
						l-1.969,7.899l-1.357-0.338l2.4-9.629l1.686,0.422l4.281,9.456l1.971-7.9l1.354,0.341L123.045,21.685z M112.037,19.295
						l-1.385-0.194l1.379-9.825l1.387,0.193L112.037,19.295z M107.949,11.183c-1.193-0.833-2.439-1.298-3.732-1.389
						c-0.861-0.058-1.527,0.014-2.002,0.219c-0.473,0.206-0.727,0.517-0.754,0.936c-0.029,0.44,0.193,0.773,0.666,1.01
						c0.338,0.168,0.9,0.31,1.688,0.419c1.156,0.173,1.92,0.298,2.287,0.38c1.041,0.238,1.798,0.596,2.27,1.08
						c0.473,0.481,0.678,1.132,0.623,1.953c-0.074,1.047-0.525,1.831-1.355,2.351s-1.984,0.725-3.463,0.624
						c-2.15-0.15-3.779-0.823-4.896-2.021l0.851-1.135c1.25,1.038,2.637,1.615,4.154,1.719c0.982,0.069,1.758-0.038,2.32-0.318
						c0.541-0.274,0.833-0.678,0.869-1.217c0.045-0.629-0.268-1.07-0.935-1.33c-0.349-0.133-1.3-0.313-2.856-0.543
						c-1.379-0.205-2.338-0.493-2.873-0.86c-0.622-0.427-0.903-1.094-0.838-1.994c0.063-0.931,0.481-1.64,1.256-2.124
						c0.781-0.488,1.846-0.683,3.193-0.589c1.814,0.128,3.297,0.722,4.453,1.783L107.949,11.183z M98.028,10.693
						c-1.302-0.659-2.597-0.943-3.892-0.853c-0.86,0.062-1.512,0.225-1.947,0.494c-0.443,0.27-0.648,0.613-0.62,1.03
						c0.03,0.44,0.299,0.742,0.799,0.906c0.358,0.123,0.937,0.185,1.729,0.183c1.166,0.009,1.939,0.027,2.316,0.057
						c1.064,0.091,1.864,0.342,2.4,0.755c0.535,0.41,0.832,1.025,0.887,1.847c0.076,1.047-0.262,1.887-1.014,2.515
						c-0.75,0.628-1.867,0.996-3.345,1.1c-2.145,0.15-3.854-0.29-5.124-1.319l0.684-1.241c1.383,0.855,2.832,1.231,4.352,1.124
						c0.984-0.068,1.736-0.282,2.254-0.64c0.5-0.345,0.729-0.786,0.692-1.323c-0.044-0.63-0.413-1.027-1.111-1.19
						c-0.364-0.081-1.333-0.129-2.905-0.137c-1.395-0.015-2.383-0.163-2.963-0.453c-0.678-0.337-1.049-0.958-1.111-1.861
						c-0.066-0.928,0.252-1.687,0.949-2.279c0.709-0.588,1.734-0.93,3.082-1.025c1.811-0.126,3.364,0.255,4.658,1.145L98.028,10.693
						z M87.02,15.689l-2.867-4.402l-1.377,5.073L87.02,15.689z M90.755,18.857l-1.507,0.242l-1.314-2.042l-5.604,0.887l-0.619,2.346
						l-1.506,0.237l2.854-10.497l1.736-0.276L90.755,18.857z M78.854,13.027l-1.057,0.881c-1.129-0.772-2.43-0.932-3.9-0.484
						c-1.114,0.341-1.918,0.957-2.42,1.845c-0.492,0.887-0.582,1.849-0.261,2.888c0.327,1.077,0.937,1.84,1.832,2.292
						c0.897,0.442,1.938,0.483,3.118,0.122c1.426-0.438,2.389-1.297,2.886-2.591l1.379,0.398c-0.336,0.972-0.819,1.75-1.444,2.334
						c-0.622,0.57-1.439,1.013-2.457,1.326c-1.426,0.433-2.74,0.376-3.939-0.175c-1.369-0.631-2.295-1.724-2.77-3.281
						c-0.467-1.529-0.305-2.943,0.492-4.247c0.693-1.139,1.738-1.921,3.145-2.354C75.477,11.366,77.273,11.715,78.854,13.027
						 M66.451,25.587l-1.271,0.587l-4.192-8.991l1.268-0.591L66.451,25.587z M59.359,27.409c0.719-0.432,1.146-1.056,1.277-1.869
						c0.141-0.829-0.049-1.673-0.563-2.524c-0.546-0.908-1.235-1.49-2.068-1.745c-0.828-0.261-1.643-0.15-2.449,0.335l-3.477,2.086
						l3.576,5.945L59.359,27.409z M54.688,20.385c1.258-0.757,2.49-0.96,3.698-0.608c1.21,0.339,2.212,1.17,3.009,2.495
						c0.729,1.213,0.947,2.456,0.653,3.731c-0.274,1.188-0.948,2.105-2.021,2.749l-4.801,2.883l-5.111-8.503L54.688,20.385z
						 M50.059,35.512l-1.117,0.842l-5.973-7.924l1.117-0.841L50.059,35.512z M43.635,38.961c0.613-0.57,0.9-1.27,0.861-2.096
						c-0.037-0.839-0.398-1.622-1.076-2.351c-0.722-0.776-1.518-1.202-2.387-1.28c-0.861-0.082-1.637,0.198-2.324,0.839
						l-2.967,2.764l4.73,5.072L43.635,38.961z M37.605,33.059c1.074-1,2.235-1.455,3.49-1.361c1.254,0.08,2.406,0.685,3.461,1.813
						c0.965,1.035,1.439,2.208,1.413,3.517c-0.021,1.218-0.487,2.253-1.4,3.107l-4.099,3.82l-6.766-7.256L37.605,33.059z
						 M37.342,42.715c0.803,0.651,1.182,1.509,1.143,2.574c-0.027,1.098-0.502,2.209-1.415,3.337
						c-0.913,1.13-1.907,1.828-2.985,2.095c-1.041,0.256-1.957,0.063-2.756-0.581l-5.217-4.226l0.879-1.086l4.91,3.977
						c0.604,0.487,1.246,0.637,1.93,0.451c0.684-0.196,1.373-0.72,2.068-1.579c0.694-0.854,1.059-1.632,1.098-2.334
						c0.043-0.706-0.242-1.303-0.843-1.791l-4.911-3.975l0.881-1.085L37.342,42.715z M26.604,47.675l-2.133,3.419l7.146,4.466
						l-0.742,1.187l-7.146-4.467l-2.136,3.419l-1.268-0.794l5.013-8.022L26.604,47.675z M21.584,57.354
						c-1.22,0.797-2.115,1.778-2.683,2.942c-0.38,0.775-0.563,1.419-0.548,1.938c0.012,0.514,0.205,0.863,0.584,1.046
						c0.395,0.195,0.789,0.114,1.186-0.237c0.283-0.249,0.625-0.719,1.02-1.406c0.594-1.007,0.996-1.666,1.209-1.978
						c0.609-0.876,1.229-1.444,1.852-1.704c0.625-0.254,1.303-0.203,2.045,0.156c0.941,0.461,1.5,1.172,1.67,2.138
						c0.17,0.964-0.068,2.115-0.72,3.448c-0.942,1.932-2.177,3.191-3.702,3.779l-0.737-1.213c1.434-0.771,2.485-1.841,3.151-3.209
						c0.432-0.888,0.625-1.643,0.575-2.273c-0.052-0.605-0.319-1.023-0.805-1.26c-0.567-0.273-1.093-0.154-1.581,0.368
						c-0.256,0.275-0.781,1.09-1.576,2.449c-0.707,1.199-1.331,1.98-1.873,2.337c-0.629,0.418-1.353,0.429-2.165,0.034
						c-0.839-0.41-1.337-1.063-1.499-1.963c-0.156-0.907,0.061-1.968,0.654-3.179c0.795-1.634,1.9-2.789,3.32-3.462L21.584,57.354z
						 M23.051,73.028l-0.456,1.322l-9.384-3.229l0.455-1.323L23.051,73.028z M22.252,75.072l-1.916,7.675l-9.627-2.401l0.339-1.355
						l8.177,2.038l1.576-6.318L22.252,75.072z M14.918,83.354c1.6,0.225,2.826,0.896,3.677,2.01
						c0.849,1.108,1.157,2.465,0.935,4.072c-0.206,1.47-0.818,2.636-1.832,3.495c-1.152,0.976-2.529,1.352-4.133,1.126
						c-1.574-0.222-2.791-0.968-3.641-2.243c-0.75-1.116-1.016-2.436-0.805-3.959c0.264-1.836,1.266-3.232,3.014-4.186l0.578,1.398
						c-1.215,0.714-1.924,1.752-2.111,3.113c-0.15,1.063,0.032,1.992,0.549,2.794c0.598,0.931,1.471,1.479,2.619,1.64
						c1.104,0.155,2.051-0.078,2.838-0.695c0.789-0.619,1.266-1.517,1.43-2.691c0.261-1.848-0.416-3.166-2.033-3.958l-0.543,3.888
						l-1.48-0.207l0.789-5.618L14.918,83.354z M18.707,94.443l-0.156,8.826l-9.921-0.172l0.149-8.504l1.492,0.028l-0.121,7.104
						l2.535,0.043l0.084-4.938l1.494,0.026l-0.086,4.938l2.904,0.051l0.131-7.43L18.707,94.443z M17.468,108.359
						c-0.102-0.832-0.5-1.473-1.188-1.931c-0.701-0.461-1.547-0.63-2.535-0.511c-1.052,0.131-1.867,0.526-2.439,1.182
						c-0.572,0.648-0.801,1.441-0.687,2.373l0.492,4.023l6.884-0.848L17.468,108.359z M9.148,109.769
						c-0.18-1.457,0.137-2.664,0.949-3.628c0.799-0.964,1.971-1.542,3.504-1.729c1.402-0.174,2.627,0.133,3.674,0.924
						c0.973,0.731,1.537,1.717,1.689,2.959l0.682,5.561l-9.846,1.211L9.148,109.769z M11.379,125.113l0.207,0.682l-1.754,2.045
						l-0.395-1.289L11.379,125.113z M17.637,121.728l-3.958,3.453l5.214,0.658L17.637,121.728z M20.255,117.589l0.448,1.461
						l-1.84,1.588l1.66,5.421l2.41,0.288l0.443,1.459l-10.791-1.365l-0.516-1.682L20.255,117.589z M15.246,130.367l1.637,3.684
						l7.699-3.431l0.57,1.275l-7.703,3.431l1.643,3.684l-1.365,0.604l-3.85-8.64L15.246,130.367z M27.373,136.599l0.655,1.234
						l-8.763,4.658l-0.655-1.234L27.373,136.599z M23.154,144.708c0.025,1.458,0.385,2.738,1.074,3.836
						c0.455,0.731,0.906,1.229,1.352,1.488c0.441,0.266,0.84,0.287,1.197,0.064c0.375-0.235,0.514-0.613,0.426-1.131
						c-0.059-0.377-0.278-0.914-0.652-1.613c-0.539-1.035-0.885-1.729-1.035-2.074c-0.423-0.98-0.574-1.806-0.462-2.47
						c0.112-0.666,0.519-1.218,1.214-1.651c0.892-0.559,1.789-0.654,2.697-0.285c0.908,0.365,1.758,1.178,2.541,2.436
						c1.139,1.824,1.555,3.539,1.244,5.143l-1.416-0.02c0.102-1.623-0.248-3.079-1.055-4.367c-0.522-0.839-1.064-1.406-1.623-1.695
						c-0.537-0.277-1.037-0.273-1.492,0.014c-0.535,0.334-0.711,0.843-0.528,1.539c0.097,0.357,0.511,1.234,1.241,2.631
						c0.643,1.234,0.975,2.18,0.992,2.826c0.018,0.756-0.354,1.379-1.121,1.855c-0.789,0.496-1.609,0.568-2.457,0.23
						c-0.854-0.346-1.638-1.094-2.354-2.237c-0.963-1.544-1.355-3.093-1.176-4.651L23.154,144.708z M31.773,153.238
						c-0.68-0.836-1.41-0.939-2.199-0.304c-0.846,0.685-0.9,1.481-0.17,2.388l3.096,3.819l2.448-1.981L31.773,153.238z
						 M33.91,147.492l1.02,1.256l-1.504,4.156l2.686,3.313l2.938-2.379l0.88,1.086l-7.711,6.243l-4.188-5.169
						c-0.557-0.688-0.773-1.404-0.65-2.154c0.115-0.744,0.546-1.416,1.287-2.02c0.656-0.531,1.311-0.796,1.968-0.799
						c0.61,0,1.175,0.217,1.692,0.656L33.91,147.492z M40.441,155.416l6.354,6.135l-6.895,7.139l-6.115-5.906l1.035-1.074
						l5.111,4.933l1.762-1.823l-3.553-3.428l1.037-1.077l3.555,3.435l2.016-2.092l-5.344-5.166L40.441,155.416z M40.793,169.521
						l9.598-5.195l1.286,0.969l-2.343,10.658l-1.248-0.937l1.959-8.89l-8.006,4.33L40.793,169.521z M56.033,168.234l1.187,0.739
						l-5.259,8.415l-1.185-0.738L56.033,168.234z M58.514,170.113l1.551,0.755l2.23,10.147l3.567-7.318l1.261,0.611l-4.35,8.922
						l-1.561-0.764l-2.221-10.139l-3.57,7.316l-1.258-0.615L58.514,170.113z M67.293,178.001c0.337-0.977,1.016-1.627,2.03-1.955
						c1.041-0.348,2.247-0.285,3.62,0.188c1.374,0.475,2.371,1.17,2.987,2.09c0.599,0.891,0.731,1.819,0.399,2.787l-2.189,6.35
						l-1.322-0.455l2.059-5.975c0.253-0.732,0.175-1.387-0.234-1.965c-0.416-0.578-1.146-1.047-2.191-1.406
						c-1.043-0.359-1.896-0.436-2.568-0.234c-0.676,0.203-1.143,0.672-1.395,1.406l-2.057,5.975l-1.32-0.455L67.293,178.001z
						 M108.457,185.16c-0.459-0.719-1.213-1.033-2.26-0.939c-0.539,0.045-0.955,0.195-1.246,0.442
						c-0.289,0.245-0.42,0.544-0.389,0.899c0.031,0.373,0.211,0.66,0.534,0.863c0.319,0.197,0.749,0.27,1.28,0.225
						C107.326,186.566,108.021,186.07,108.457,185.16 M108.768,186.208c-0.527,0.867-1.309,1.344-2.342,1.434
						c-0.816,0.074-1.48-0.066-1.992-0.41c-0.512-0.346-0.791-0.844-0.85-1.49c-0.06-0.695,0.139-1.273,0.6-1.732
						c0.465-0.461,1.135-0.729,2.008-0.807c1.018-0.088,1.861,0.168,2.527,0.766c0.666,0.602,1.049,1.441,1.145,2.528
						c0.09,1.036-0.16,1.916-0.748,2.645c-0.553,0.688-1.283,1.073-2.191,1.151c-1.075,0.094-1.988-0.219-2.73-0.939l0.591-0.799
						c0.466,0.541,1.126,0.771,1.985,0.697c0.344-0.029,0.666-0.127,0.961-0.291c0.383-0.225,0.676-0.548,0.877-0.971
						c0.205-0.436,0.285-0.904,0.244-1.404L108.768,186.208z M103.463,184.472l-3.727,5.939l-1.125,0.022l3.725-5.94l-4.766,0.082
						l-0.018-1.045l5.895-0.1L103.463,184.472z M96.131,185.472c-0.367-0.77-1.08-1.176-2.126-1.213
						c-0.541-0.018-0.974,0.078-1.296,0.291c-0.316,0.203-0.479,0.484-0.492,0.844c-0.012,0.375,0.128,0.682,0.424,0.922
						c0.293,0.234,0.711,0.359,1.245,0.377C94.838,186.728,95.588,186.322,96.131,185.472 M96.313,186.55
						c-0.629,0.793-1.461,1.17-2.502,1.137c-0.816-0.029-1.459-0.248-1.927-0.652c-0.463-0.406-0.682-0.932-0.661-1.581
						c0.023-0.7,0.295-1.249,0.805-1.642c0.521-0.406,1.217-0.59,2.092-0.561c1.023,0.035,1.828,0.389,2.418,1.068
						c0.588,0.68,0.861,1.561,0.825,2.646c-0.037,1.041-0.391,1.884-1.062,2.535c-0.635,0.615-1.406,0.904-2.316,0.879
						c-1.08-0.041-1.947-0.463-2.598-1.27l0.688-0.719c0.393,0.59,1.021,0.906,1.885,0.934c0.345,0.012,0.676-0.049,0.986-0.174
						c0.408-0.172,0.734-0.459,0.988-0.859c0.26-0.402,0.398-0.855,0.413-1.357L96.313,186.55z"/>
				</g>
			</g>
		</g>
		<g clip-path="url(#SVGID_2_)">
			<defs>
				<path id="SVGID_20_" d="M80.529,148.048c0.863-0.959,1.801-1.801,2.799-2.533c1.109-0.811,2.158-1.746,3.113-2.813
					c1.51-1.678,2.676-3.542,3.529-5.502l4.493-4.938c-0.116,1.386-0.392,2.78-0.845,4.161c-1.924,5.901-6.566,10.16-12.077,11.837
					c-0.492,0.146-1.069,0.233-1.548,0.413c-0.021,0.01-0.037,0.014-0.047,0.014C79.838,148.687,80.361,148.237,80.529,148.048
					 M101.08,151.611c0.398-1.223,0.91-2.375,1.527-3.449c0.682-1.191,1.256-2.473,1.695-3.832c0.694-2.146,1-4.324,0.982-6.461
					l2.092-6.336c0.459,1.311,0.774,2.7,0.924,4.142c0.645,6.175-1.861,11.948-6.211,15.718c-0.389,0.338-0.884,0.648-1.246,1.006
					c-0.022,0.022-0.037,0.033-0.047,0.033C100.728,152.431,101.004,151.843,101.08,151.611 M64.045,137.052
					c-0.514-0.064-1.068-0.223-1.584-0.248c-0.272-0.016,0.494-0.239,0.746-0.352c1.178-0.529,2.379-0.917,3.591-1.182
					c1.345-0.287,2.681-0.721,3.987-1.305c2.061-0.917,3.887-2.149,5.467-3.589l6.119-2.692c-0.67,1.22-1.494,2.381-2.471,3.465
					c-3.617,4.002-8.607,6.041-13.605,6.041C65.544,137.191,64.793,137.145,64.045,137.052 M121.307,146.519
					c-0.135-1.275-0.135-2.537-0.012-3.77c0.139-1.365,0.141-2.768-0.01-4.189c-0.24-2.243-0.852-4.355-1.738-6.303l-0.67-6.635
					c0.955,1.011,1.808,2.148,2.535,3.41c3.103,5.373,3.17,11.671,0.73,16.881c-0.221,0.463-0.544,0.947-0.73,1.428
					c-0.014,0.033-0.025,0.049-0.034,0.049C121.318,147.39,121.331,146.759,121.307,146.519 M60.045,119.63
					c2.258-0.002,4.428-0.388,6.455-1.061l6.688,0.026c-1.114,0.844-2.339,1.567-3.669,2.159c-5.679,2.52-11.958,1.926-16.895-1.041
					c-0.439-0.264-0.889-0.637-1.342-0.87c-0.244-0.124,0.547-0.021,0.824-0.021c1.287,0,2.545,0.129,3.76,0.381
					c1.332,0.279,2.721,0.426,4.139,0.426C60.02,119.63,60.031,119.63,60.045,119.63 M137.713,133.662
					c-0.647-1.115-1.164-2.264-1.549-3.442c-0.43-1.303-1.002-2.588-1.719-3.82c-1.133-1.957-2.551-3.634-4.154-5.054l-3.32-5.791
					c1.287,0.541,2.531,1.234,3.709,2.088c5.026,3.648,7.649,9.375,7.546,15.125c-0.013,0.51-0.112,1.086-0.086,1.598
					c0.003,0.041-0.003,0.059-0.014,0.059C138.066,134.423,137.829,133.863,137.713,133.662 M147.457,115.25
					c-1.046-0.75-1.984-1.595-2.818-2.512c-0.924-1.016-1.968-1.957-3.127-2.796c-1.828-1.321-3.813-2.284-5.85-2.929l-5.395-3.943
					c1.396-0.029,2.815,0.1,4.238,0.404c6.08,1.295,10.807,5.455,13.057,10.75c0.194,0.477,0.34,1.041,0.572,1.498
					c0.021,0.043,0.021,0.061,0.006,0.061C148.066,115.783,147.641,115.384,147.457,115.25 M49.262,99.239
					c-0.293-0.423-0.551-0.943-0.873-1.342c-0.173-0.212,0.508,0.203,0.762,0.313c1.178,0.525,2.271,1.152,3.279,1.879
					c1.115,0.801,2.332,1.502,3.643,2.084c2.061,0.915,4.203,1.445,6.331,1.653l6.097,2.733c-1.357,0.321-2.771,0.486-4.229,0.486
					C58.055,107.041,52.564,103.951,49.262,99.239 M128.191,90.326c1.261-0.591,2.609-1.049,4.037-1.352
					c6.08-1.286,12.096,0.6,16.305,4.523c0.376,0.354,0.736,0.809,1.135,1.132c0.213,0.173-0.541-0.095-0.813-0.15
					c-1.26-0.266-2.461-0.655-3.596-1.153c-1.26-0.555-2.596-0.989-3.998-1.285c-2.207-0.466-4.408-0.539-6.537-0.301
					L128.191,90.326z M65.061,92.394c-5.676-2.529-9.434-7.582-10.529-13.229c-0.094-0.507-0.115-1.084-0.252-1.58
					c-0.068-0.265,0.385,0.396,0.57,0.6c0.86,0.955,1.604,1.973,2.23,3.044c0.691,1.185,1.514,2.32,2.475,3.383
					c1.516,1.673,3.252,3.026,5.112,4.077l4.456,4.977C67.751,93.407,66.391,92.986,65.061,92.394 M124.236,76.656
					c5.031-3.641,11.295-4.365,16.742-2.488c0.484,0.17,0.998,0.44,1.496,0.572c0.264,0.072-0.533,0.134-0.803,0.191
					c-1.262,0.271-2.516,0.4-3.758,0.406c-1.375,0.008-2.773,0.15-4.171,0.45c-2.21,0.472-4.253,1.297-6.099,2.38l-6.543,1.361
					C122.01,78.474,123.059,77.508,124.236,76.656 M71.757,79.328c-4.159-4.613-5.534-10.757-4.233-16.359
					c0.121-0.499,0.336-1.041,0.416-1.547c0.044-0.271,0.189,0.516,0.271,0.776c0.402,1.228,0.664,2.459,0.801,3.689
					c0.148,1.363,0.439,2.737,0.886,4.096c0.698,2.144,1.735,4.085,3.007,5.802l2.039,6.354
					C73.8,81.345,72.728,80.407,71.757,79.328 M111.916,68.647c3.113-5.372,8.541-8.575,14.281-9.07
					c0.513-0.043,1.093-0.003,1.604-0.085c0.27-0.039-0.433,0.336-0.658,0.501c-1.043,0.758-2.135,1.386-3.268,1.896
					c-1.252,0.564-2.471,1.262-3.629,2.105c-1.825,1.329-3.354,2.91-4.598,4.651l-5.424,3.901
					C110.627,71.21,111.189,69.905,111.916,68.647 M83.191,70.108c-1.913-5.902-0.668-12.072,2.803-16.662
					c0.313-0.407,0.73-0.813,1.012-1.244c0.147-0.228-0.039,0.546-0.066,0.822c-0.135,1.281-0.396,2.512-0.775,3.691
					c-0.42,1.308-0.711,2.678-0.861,4.102c-0.234,2.244-0.078,4.437,0.385,6.522l-0.725,6.632
					C84.24,72.784,83.643,71.491,83.191,70.108 M97.399,66.33c0.655-6.17,4.31-11.3,9.349-14.085
					c0.453-0.244,0.996-0.446,1.43-0.724c0.23-0.148-0.257,0.483-0.395,0.721c-0.645,1.116-1.385,2.138-2.211,3.059
					c-0.917,1.024-1.745,2.16-2.461,3.397c-1.125,1.954-1.877,4.021-2.307,6.115l-3.363,5.764
					C97.266,69.197,97.244,67.775,97.399,66.33 M112.963,34.063c-0.717,6.835-4.775,12.509-10.379,15.552
					c-5.037,2.78-8.686,7.906-9.332,14.076c-0.207,1.979-0.094,3.913,0.305,5.756c-1.752-3.372-2.568-7.28-2.145-11.349
					c0.151-1.421,0.446-2.796,0.865-4.101c0.383-1.179,0.646-2.414,0.779-3.694c0.773-7.36-2.938-14.157-8.925-17.654
					c0.261,0.604,0.497,1.229,0.707,1.866c2.114,6.54,0.706,13.377-3.183,18.442c-3.473,4.595-4.729,10.766-2.817,16.666
					c0.61,1.89,1.501,3.611,2.61,5.133c-2.968-2.364-5.299-5.603-6.557-9.489c-0.439-1.36-0.728-2.735-0.872-4.102
					c-0.13-1.231-0.392-2.464-0.786-3.689c-2.281-7.041-8.426-11.732-15.316-12.483c0.488,0.442,0.959,0.914,1.406,1.418
					c4.584,5.104,6.07,11.928,4.568,18.142c-1.311,5.614,0.044,11.763,4.182,16.37c1.323,1.478,2.836,2.687,4.467,3.623
					c-3.672-0.949-7.113-2.954-9.838-5.993c-0.954-1.063-1.773-2.2-2.461-3.389c-0.617-1.071-1.355-2.092-2.215-3.049
					c-4.936-5.502-12.453-7.276-19.051-5.151c0.621,0.205,1.242,0.448,1.856,0.721c6.257,2.794,10.382,8.418,11.528,14.705
					c1.077,5.663,4.809,10.726,10.457,13.247c1.81,0.809,3.68,1.297,5.549,1.489c-3.736,0.63-7.696,0.202-11.416-1.461
					c-1.304-0.582-2.514-1.288-3.621-2.092c-1.002-0.727-2.09-1.359-3.26-1.882c-6.74-3.009-14.33-1.563-19.498,3.071
					c0.654-0.064,1.32-0.099,1.99-0.099c6.85-0.003,12.898,3.452,16.494,8.726c3.281,4.734,8.74,7.836,14.924,7.833
					c1.98,0,3.889-0.317,5.676-0.908c-3.162,2.103-6.949,3.327-11.025,3.329c-1.424,0-2.817-0.149-4.16-0.435
					c-1.205-0.253-2.453-0.388-3.738-0.388c-7.379,0-13.727,4.422-16.572,10.762c0.572-0.327,1.168-0.629,1.779-0.902
					c6.258-2.797,13.186-2.113,18.609,1.238c4.916,2.986,11.164,3.59,16.813,1.066c1.809-0.813,3.426-1.879,4.818-3.146
					c-2.039,3.209-5.006,5.873-8.727,7.538c-1.303,0.581-2.634,1.011-3.973,1.301c-1.209,0.259-2.406,0.649-3.576,1.171
					c-6.742,3.013-10.751,9.643-10.779,16.595c0.391-0.534,0.811-1.05,1.262-1.552c4.586-5.111,11.188-7.307,17.504-6.463
					c5.703,0.721,11.652-1.279,15.791-5.891c1.325-1.479,2.369-3.109,3.127-4.837c-0.559,3.762-2.188,7.408-4.918,10.448
					c-0.949,1.063-1.995,1.998-3.102,2.807c-0.998,0.73-1.932,1.574-2.791,2.529c-4.941,5.506-5.916,13.193-3.123,19.557
					c0.141-0.648,0.316-1.288,0.521-1.93c2.12-6.541,7.263-11.244,13.374-13.051c5.503-1.668,10.133-5.922,12.045-11.822
					c0.613-1.891,0.9-3.807,0.896-5.689c1.013,3.664,1.001,7.656-0.259,11.541c-0.441,1.361-1.016,2.641-1.696,3.835
					c-0.616,1.073-1.129,2.224-1.525,3.452c-2.284,7.039-0.058,14.463,5.073,19.13c-0.133-0.643-0.236-1.306-0.306-1.974
					c-0.716-6.836,2.079-13.232,6.931-17.375c4.352-3.77,6.858-9.547,6.211-15.718c-0.207-1.974-0.719-3.843-1.49-5.567
					c2.412,2.938,4.021,6.587,4.446,10.656c0.148,1.421,0.144,2.824,0.004,4.192c-0.128,1.231-0.13,2.489,0.005,3.774
					c0.769,7.361,5.811,13.234,12.391,15.406c-0.384-0.535-0.744-1.096-1.08-1.682c-3.424-5.951-3.465-12.932-0.709-18.701
					c2.445-5.215,2.396-11.512-0.695-16.888c-0.988-1.72-2.217-3.216-3.617-4.472c3.395,1.691,6.342,4.373,8.379,7.915
					c0.713,1.233,1.277,2.522,1.703,3.824c0.385,1.181,0.892,2.333,1.535,3.446c3.684,6.412,10.674,9.716,17.566,9.018
					c-0.568-0.335-1.123-0.699-1.668-1.096c-5.541-4.037-8.408-10.398-8.229-16.79c0.121-5.765-2.479-11.497-7.481-15.144
					c-1.603-1.166-3.33-2.031-5.12-2.605c3.788,0.159,7.569,1.402,10.866,3.806c1.151,0.839,2.19,1.783,3.106,2.801
					c0.829,0.917,1.762,1.765,2.798,2.521c5.968,4.352,13.692,4.521,19.708,1.064c-0.652-0.07-1.311-0.178-1.966-0.316
					c-6.704-1.429-11.901-6.066-14.327-11.979c-2.227-5.314-6.927-9.489-12.971-10.777c-1.939-0.414-3.871-0.498-5.738-0.296
					c3.527-1.396,7.486-1.804,11.471-0.954c1.395,0.299,2.725,0.734,3.979,1.288c1.126,0.505,2.322,0.896,3.576,1.162
					c7.217,1.537,14.342-1.458,18.439-7.069c-0.629,0.199-1.271,0.371-1.93,0.514c-6.699,1.429-13.33-0.688-17.945-5.094
					c-4.188-3.949-10.17-5.842-16.221-4.551c-1.936,0.413-3.738,1.123-5.359,2.071c2.654-2.715,6.108-4.704,10.094-5.553
					c1.393-0.299,2.787-0.443,4.156-0.445c1.234-0.003,2.482-0.132,3.736-0.399c7.22-1.542,12.515-7.187,13.982-13.982
					c-0.492,0.44-1.01,0.856-1.553,1.253c-5.542,4.042-12.461,4.816-18.461,2.671c-5.428-1.897-11.665-1.184-16.665,2.464
					c-1.604,1.17-2.962,2.553-4.061,4.082c1.325-3.563,3.677-6.792,6.972-9.193c1.154-0.84,2.368-1.54,3.617-2.103
					c1.129-0.503,2.216-1.135,3.256-1.892c5.973-4.353,8.52-11.671,7.106-18.475c-0.272,0.6-0.575,1.194-0.911,1.775
					c-3.426,5.957-9.434,9.485-15.785,9.977c-5.726,0.483-11.135,3.681-14.229,9.053c-0.991,1.723-1.671,3.54-2.057,5.384
					c-0.232-3.796,0.608-7.702,2.645-11.242c0.714-1.239,1.54-2.373,2.458-3.398c0.822-0.92,1.563-1.94,2.205-3.053
					c3.69-6.415,3.053-14.138-1-19.779C113.068,32.727,113.032,33.393,112.963,34.063"/>
			</defs>
			<clipPath id="SVGID_21_">
				<use xlink:href="#SVGID_20_"  overflow="visible"/>
			</clipPath>
			
				<linearGradient id="SVGID_22_" gradientUnits="userSpaceOnUse" x1="-201.3115" y1="520.3354" x2="-200.8115" y2="520.3354" gradientTransform="matrix(0 -276.8828 -276.8828 0 144171.9375 -55569.1914)">
				<stop  offset="0" style="stop-color:#817A1E"/>
				<stop  offset="0.0183" style="stop-color:#867F1C"/>
				<stop  offset="0.1502" style="stop-color:#ACA007"/>
				<stop  offset="0.283" style="stop-color:#CABC00"/>
				<stop  offset="0.4156" style="stop-color:#E1D200"/>
				<stop  offset="0.5479" style="stop-color:#EFDF00"/>
				<stop  offset="0.6797" style="stop-color:#F3E400"/>
				<stop  offset="0.7544" style="stop-color:#F0E100"/>
				<stop  offset="0.8281" style="stop-color:#E5D600"/>
				<stop  offset="0.9013" style="stop-color:#D3C600"/>
				<stop  offset="0.9739" style="stop-color:#B9B000"/>
				<stop  offset="1" style="stop-color:#AEA60D"/>
			</linearGradient>
			<rect x="30.572" y="32.066" clip-path="url(#SVGID_21_)" fill="url(#SVGID_22_)" width="138.447" height="138.442"/>
		</g>
		<g clip-path="url(#SVGID_2_)">
			<defs>
				<polygon id="SVGID_23_" points="35.967,79.101 31.588,79.083 35.119,81.701 33.709,86.042 37.424,83.335 41.014,86.023 
					39.672,81.726 43.303,79.077 38.805,79.088 37.412,74.751 				"/>
			</defs>
			<clipPath id="SVGID_24_">
				<use xlink:href="#SVGID_23_"  overflow="visible"/>
			</clipPath>
			
				<linearGradient id="SVGID_25_" gradientUnits="userSpaceOnUse" x1="-203.415" y1="518.2817" x2="-202.9149" y2="518.2817" gradientTransform="matrix(-11.5624 -20.0266 -20.0266 11.5624 8068.252 -9980.1523)">
				<stop  offset="0" style="stop-color:#817A1E"/>
				<stop  offset="0.7734" style="stop-color:#F3E400"/>
				<stop  offset="1" style="stop-color:#B7B40A"/>
			</linearGradient>
			<polygon clip-path="url(#SVGID_24_)" fill="url(#SVGID_25_)" points="34.516,91.115 26.699,77.575 40.373,69.679 48.191,83.22 
							"/>
		</g>
		<g clip-path="url(#SVGID_2_)">
			<defs>
				<polygon id="SVGID_26_" points="98.428,33.401 93.879,33.385 97.563,36.104 96.197,40.263 99.777,37.71 103.467,40.395 
					102.043,36.027 105.713,33.442 101.207,33.391 99.809,29.118 				"/>
			</defs>
			<clipPath id="SVGID_27_">
				<use xlink:href="#SVGID_26_"  overflow="visible"/>
			</clipPath>
			
				<linearGradient id="SVGID_28_" gradientUnits="userSpaceOnUse" x1="-198.4292" y1="520.5122" x2="-197.9292" y2="520.5122" gradientTransform="matrix(0 22.5547 22.5547 0 -11640.208 4504.6167)">
				<stop  offset="0" style="stop-color:#817A1E"/>
				<stop  offset="0.8945" style="stop-color:#F3E400"/>
				<stop  offset="1" style="stop-color:#CFD622"/>
			</linearGradient>
			<rect x="93.879" y="29.118" clip-path="url(#SVGID_27_)" fill="url(#SVGID_28_)" width="11.834" height="11.277"/>
		</g>
		<g clip-path="url(#SVGID_2_)">
			<defs>
				<polygon id="SVGID_29_" points="136.932,152.561 132.438,152.568 136.084,155.208 134.665,159.532 138.389,156.865 
					141.92,159.453 140.603,155.257 144.295,152.575 139.695,152.58 138.375,148.294 				"/>
			</defs>
			<clipPath id="SVGID_30_">
				<use xlink:href="#SVGID_29_"  overflow="visible"/>
			</clipPath>
			
				<linearGradient id="SVGID_31_" gradientUnits="userSpaceOnUse" x1="-200.0063" y1="522.814" x2="-199.5063" y2="522.814" gradientTransform="matrix(11.587 -20.0693 -20.0693 -11.587 12945.0039 2203.5991)">
				<stop  offset="0" style="stop-color:#817A1E"/>
				<stop  offset="0.7813" style="stop-color:#F3E400"/>
				<stop  offset="1" style="stop-color:#B9B70D"/>
			</linearGradient>
			<polygon clip-path="url(#SVGID_30_)" fill="url(#SVGID_31_)" points="127.572,156.722 135.402,143.16 149.161,151.103 
				141.33,164.666 			"/>
		</g>
		<g clip-path="url(#SVGID_2_)">
			<defs>
				<polygon id="SVGID_32_" points="59.846,152.55 55.296,152.535 58.98,155.253 57.613,159.414 61.195,156.859 64.885,159.544 
					63.46,155.177 67.129,152.593 62.623,152.541 61.227,148.269 				"/>
			</defs>
			<clipPath id="SVGID_33_">
				<use xlink:href="#SVGID_32_"  overflow="visible"/>
			</clipPath>
			
				<linearGradient id="SVGID_34_" gradientUnits="userSpaceOnUse" x1="-200.1743" y1="517.6147" x2="-199.6743" y2="517.6147" gradientTransform="matrix(-11.5949 -20.083 -20.083 11.5949 8138.8452 -9862.0625)">
				<stop  offset="0" style="stop-color:#817A1E"/>
				<stop  offset="0.7813" style="stop-color:#F3E400"/>
				<stop  offset="1" style="stop-color:#B9B70D"/>
			</linearGradient>
			<polygon clip-path="url(#SVGID_33_)" fill="url(#SVGID_34_)" points="58.254,164.669 50.413,151.087 64.172,143.144 
				72.012,156.726 			"/>
		</g>
		<g clip-path="url(#SVGID_2_)">
			<defs>
				<polygon id="SVGID_35_" points="160.777,79.138 156.295,79.072 159.902,81.761 158.525,86.04 162.161,83.386 165.836,86.071 
					164.449,81.707 168.002,79.148 163.604,79.106 162.195,74.765 				"/>
			</defs>
			<clipPath id="SVGID_36_">
				<use xlink:href="#SVGID_35_"  overflow="visible"/>
			</clipPath>
			
				<linearGradient id="SVGID_37_" gradientUnits="userSpaceOnUse" x1="-203.2583" y1="522.1138" x2="-202.7583" y2="522.1138" gradientTransform="matrix(11.5984 -20.0891 -20.0891 -11.5984 13005.0762 2058.6265)">
				<stop  offset="0" style="stop-color:#817A1E"/>
				<stop  offset="0.7734" style="stop-color:#F3E400"/>
				<stop  offset="1" style="stop-color:#B7B30A"/>
			</linearGradient>
			<polygon clip-path="url(#SVGID_36_)" fill="url(#SVGID_37_)" points="151.4,83.245 159.223,69.696 172.898,77.592 165.076,91.14 
							"/>
		</g>
		<g clip-path="url(#SVGID_2_)">
			<defs>
				<rect id="SVGID_38_" x="-49.039" y="-110.823" width="297.639" height="420.945"/>
			</defs>
			<clipPath id="SVGID_39_">
				<use xlink:href="#SVGID_38_"  overflow="visible"/>
			</clipPath>
			<g opacity="0.84" clip-path="url(#SVGID_39_)">
				<g>
					<defs>
						<rect id="SVGID_40_" x="70.861" y="89.341" width="57.867" height="20.893"/>
					</defs>
					<clipPath id="SVGID_41_">
						<use xlink:href="#SVGID_40_"  overflow="visible"/>
					</clipPath>
					<path clip-path="url(#SVGID_41_)" fill-rule="evenodd" clip-rule="evenodd" d="M85.643,110.234
						c1.903,0,5.244-1.158,5.244-5.169c0-3.247-1.859-4.142-3.793-4.142c-1.725,0-4.156,1.26-4.375,1.537
						c-0.645,0.818-0.968,2.268-0.968,3.133C81.751,108.638,83.273,110.234,85.643,110.234 M83.509,105.009
						c0-1.203,0.438-2.326,0.804-2.74c0.248-0.277,1.098-0.467,1.537-0.467c2.385,0,3.278,1.242,3.278,3.936
						c0,1.435-0.28,2.693-0.745,3.074c-0.337,0.276-1.098,0.396-1.643,0.396C85.016,109.208,83.509,108.023,83.509,105.009
						 M99.107,103.558c-0.012-1.098,0.324-2.051,0.5-2.398c-0.367,0-0.615-0.059-0.965-0.119c-0.353-0.057-0.824-0.117-1.422-0.117
						c-1.303,0-5.299,0.703-5.299,4.699c0,2.809,1.813,4.611,4.758,4.611c0.569,0,0.952-0.047,1.463-0.191
						c0.527-0.818,0.877-1.244,1.686-1.916l-0.529-0.017c-0.645,0.466-1.172,0.657-2.035,0.657c-1.887,0-3.584-0.817-3.584-4.01
						c0-0.672,0.293-2.238,1.068-2.691c0.275-0.16,0.877-0.264,1.389-0.264c0.467,0,1.158,0.06,1.729,0.264
						c0.715,0.262,0.934,0.746,0.934,1.492H99.107z M102.795,110.099c0.573-0.057,0.994-0.057,1.508-0.057c0.5,0,1.01,0,1.51,0.057
						c-0.721-0.146-0.721-1.404-0.721-4.537c0-1.695,0.104-3.318,0.133-3.775c1.891-0.028,2.633,0.075,2.633,1.113
						c0.309-0.572,0.455-1.393,0.604-1.961c-0.439,0.117-2.488,0.174-3.836,0.174c-1.697,0-2.707-0.012-3.324-0.057
						c-0.598-0.03-0.787-0.072-0.834-0.133c0,0.879-0.173,1.771-0.323,2.313c0.412-0.482,0.646-0.832,1.028-1.066
						c0.613-0.367,1.668-0.411,1.828-0.411c0.469,0.382,0.484,1.464,0.484,3.804c0,3.133,0,4.392-0.689,4.449V110.099z
						 M109.309,101.144c0.703,0.057,0.703,1.316,0.703,4.418c0,3.133,0,4.392-0.703,4.449c0.572,0.031,0.993,0.031,1.506,0.031
						c1.127,0,2.24,0,3.131,0.027c0.893,0.019,1.57,0.06,1.789,0.164c0.145-0.762,0.422-1.467,0.715-2.107
						c-0.582,0.672-1.346,1.346-3.688,1.346c-0.367,0-0.704,0-1.111-0.074c-0.031-1.07-0.031-2.748-0.031-3.82l0.938-0.016
						c1.787,0,2.021,0.545,2.021,1.088l0.217-1.072c0-0.497,0.063-0.994,0.117-1.492c-0.291,0.627-0.568,0.965-2.355,0.965
						c-0.307,0-0.629-0.016-0.938-0.058c0-1.45,0.073-2.823,0.102-3.304c0.367-0.047,0.721-0.079,1.086-0.079
						c1.783,0,2.736,0.427,2.736,1.394c0.248-1.142,0.393-1.699,0.482-2.08c-0.791,0.189-3.016,0.189-5.211,0.189l-0.732-0.012
						l-0.773-0.045V101.144z M117.078,110.099c0.365-0.041,0.719-0.057,1.086-0.057c0.406,0,0.818,0.016,1.227,0.057
						c-0.176-0.098-0.336-0.174-0.469-0.409c-0.145-0.249-0.235-2.693-0.235-3.864v-3.422l0.528,1.256
						c0.701,1.686,2.637,5.709,2.885,6.439c0.16-0.041,0.334-0.057,0.496-0.057c0.57-0.379,0.895-1.141,1.568-2.621
						c0.672-1.476,2.004-4.609,2.236-5.122l0.029,3.526c0,2.813,0,4.186-0.703,4.186c0.5,0.047,0.982,0.031,1.479,0.031
						c0.514,0,1.014,0.016,1.523,0.057c-0.689-0.088-0.689-1.74-0.689-4.521c0-3.278,0-4.302,0.689-4.434
						c-0.439-0.072-0.847-0.031-1.287-0.031c-0.381,0-0.761-0.041-1.142-0.057c-0.308,1.023-2.62,6.014-3.146,7.098
						c-0.791-1.627-2.637-5.445-3.134-7.098c-0.365,0.057-0.806,0.075-1.199,0.075c-0.438,0-0.878-0.019-1.302-0.075
						c0.336,0.204,0.584,0.322,0.584,1.638c0,1.378-0.336,6.704-0.673,7.084L117.078,110.099z M79.324,91.716
						c-0.043-0.258-0.059-0.652-0.059-0.812c0-0.452,0.059-0.935,0.188-1.375c-0.452,0.028-0.818-0.015-1.123-0.059
						c-0.497-0.088-0.909-0.13-1.318-0.13c-1.932,0-3.482,0.818-3.482,2.444c0,1.069,0.497,1.728,1.637,2.342
						c1.598,0.86,3.135,0.86,3.135,2.472c0,1.157-0.732,1.463-1.566,1.463c-1.67,0-2.869-1.14-2.899-2.266
						C73.6,96.381,73.6,96.66,73.6,96.688c0,0.792-0.07,1.215-0.129,1.552c0.322,0.07,1.654,0.409,2.867,0.409
						c2.65,0,3.572-1.786,3.572-2.809c0-1.29-0.85-1.743-2.59-2.548c-0.996-0.453-2.184-0.879-2.184-2.079
						c0-0.92,0.543-1.286,1.451-1.286c1.727,0,2.459,1.096,2.459,1.814L79.324,91.716z M84.708,98.649
						c1.901,0,5.238-1.156,5.238-5.166c0-3.249-1.859-4.142-3.79-4.142c-1.729,0-4.16,1.26-4.377,1.535
						c-0.645,0.819-0.963,2.27-0.963,3.132C80.816,97.055,82.336,98.649,84.708,98.649 M82.568,93.424
						c0-1.201,0.441-2.327,0.807-2.737c0.248-0.276,1.098-0.468,1.537-0.468c2.385,0,3.276,1.242,3.276,3.937
						c0,1.435-0.276,2.692-0.743,3.073c-0.34,0.278-1.098,0.396-1.639,0.396C84.076,97.625,82.568,96.44,82.568,93.424
						 M94.027,89.471c-0.494,0.059-1.01,0.059-1.507,0.059c-0.511,0-0.938,0-1.507-0.059c0.689,0.147,0.689,1.405,0.689,4.511
						c0,3.131,0,4.389-0.689,4.447c0.569,0.031,0.996,0.031,1.507,0.031c0.966,0,1.946,0,2.737,0.028
						c0.773,0.014,1.377,0.059,1.551,0.16c0-0.559,0.191-1.697,0.44-2.487c-0.571,1.318-2.048,1.726-3.175,1.726
						c-0.176,0-0.484-0.043-0.676-0.071c0-0.295-0.086-2.563-0.086-3.834c0-3.105,0-4.363,0.715-4.424V89.471z M101.871,98.517
						c0.572-0.057,0.997-0.057,1.51-0.057c0.525,0,0.98,0.014,1.504,0.057c-0.715-0.088-0.715-1.392-0.715-3.615
						c0.293,0.029,0.658,0.059,0.953,0.059c1.771,0,4.141-0.76,4.141-3.265c0-1.888-1.318-2.354-2.794-2.354
						c-0.323,0-0.852,0.042-1.466,0.088c-0.601,0.059-1.287,0.101-1.903,0.101l-0.599-0.015l-0.631-0.044
						c0.689,0.147,0.689,1.405,0.689,4.511c0,3.131,0,4.389-0.689,4.447V98.517z M104.17,94.201c0-0.498,0-3.807,0.088-4.173
						c0.277-0.087,0.557-0.101,0.819-0.101c1.493,0,2.429,0.687,2.429,2.412c0,1.156-0.57,2.037-1.991,2.037
						C104.961,94.376,104.549,94.302,104.17,94.201 M110.243,89.558c0.7,0.061,0.7,1.318,0.7,4.424c0,3.131,0,4.389-0.7,4.447
						c0.569,0.031,0.993,0.031,1.503,0.031c1.13,0,2.244,0,3.135,0.028c0.893,0.014,1.566,0.059,1.786,0.16
						c0.146-0.762,0.425-1.464,0.714-2.109c-0.582,0.675-1.347,1.348-3.687,1.348c-0.364,0-0.701,0-1.11-0.071
						c-0.029-1.069-0.029-2.752-0.029-3.822l0.936-0.012c1.783,0,2.021,0.541,2.021,1.082l0.219-1.07
						c0-0.498,0.057-0.993,0.119-1.492c-0.297,0.629-0.576,0.966-2.359,0.966c-0.309,0-0.627-0.013-0.936-0.059
						c0-1.446,0.07-2.823,0.102-3.307c0.367-0.046,0.717-0.074,1.084-0.074c1.785,0,2.735,0.425,2.735,1.394
						c0.251-1.145,0.396-1.701,0.483-2.08c-0.789,0.188-3.016,0.188-5.213,0.188l-0.729-0.015l-0.773-0.044V89.558z M118.363,98.517
						c0.572-0.057,0.994-0.057,1.506-0.057c0.514,0,0.998,0.014,1.511,0.057c-0.721-0.088-0.721-1.551-0.721-4.011
						c0.981,0,1.423,0.644,2.079,1.655l1.539,2.355c0.35-0.057,0.746-0.057,1.111-0.057c0.424,0,0.85,0,1.258,0.057
						c-0.262-0.088-0.834-0.673-1.623-1.712c-0.865-1.126-1.728-2.429-1.904-2.678c1.23-0.354,2.326-1.214,2.326-2.562
						c0-1.538-1.01-2.225-2.955-2.225c-0.703,0-1.156,0.042-1.582,0.088c-0.406,0.059-0.773,0.101-1.313,0.101l-0.603-0.015
						l-0.63-0.044c0.688,0.147,0.688,1.405,0.688,4.511c0,3.131,0,4.389-0.688,4.447V98.517z M120.659,93.922
						c0-0.485,0-3.44,0.089-3.907c0.264-0.06,0.543-0.088,0.82-0.088c1.273,0,2.123,0.629,2.123,2.225
						c0,1.141-0.484,1.842-2.211,1.842C121.232,93.994,120.908,93.953,120.659,93.922 M71.17,110.099
						c0.396-0.041,0.791-0.057,1.199-0.057c0.412,0,0.823,0.016,1.23,0.057c-0.161-0.114-0.379-0.233-0.453-0.523
						c-0.309-1.188-0.353-5.621-0.353-6.002v-0.513c0.544,0.687,5.458,6.468,5.944,7.038c0.158-0.041,0.322-0.057,0.482-0.057
						c0.117,0,0.438,0.016,0.584,0.057v-0.818c0-3.148,0.219-7.023,0.514-7.695c0.102-0.234,0.219-0.385,0.482-0.441
						c-0.352-0.031-0.586-0.031-1.067-0.031c-0.452,0-0.925-0.012-1.364-0.057c0.279,0.16,0.398,0.354,0.516,0.614
						c0.336,0.995,0.336,3.907,0.336,4.64v1.816c-1.463-1.627-4.655-5.299-5.678-7.07c-0.454,0.045-0.91,0.057-1.363,0.057
						c-0.439,0-0.881-0.012-1.318-0.057c0.369,0.104,1.215,1.113,1.246,1.201c0.072,0.219,0.104,0.512,0.104,0.875
						c0,0.985-0.162,5.956-0.541,6.542c-0.15,0.233-0.295,0.311-0.5,0.337V110.099z"/>
				</g>
			</g>
		</g>
	</g>
</g>
</svg>
