<?xml version="1.0" standalone="no"?>
<!DOCTYPE svg PUBLIC "-//W3C//DTD SVG 20010904//EN"
 "http://www.w3.org/TR/2001/REC-SVG-20010904/DTD/svg10.dtd">
<svg version="1.0" xmlns="http://www.w3.org/2000/svg"
 width="845.000000pt" height="684.000000pt" viewBox="0 0 845.000000 684.000000"
 preserveAspectRatio="xMidYMid meet">

<g transform="translate(0.000000,684.000000) scale(0.100000,-0.100000)"
fill="#000000" stroke="none">
<path d="M4335 5598 c-32 -23 -53 -44 -47 -46 14 -4 112 65 112 79 0 13 -2 13
-65 -33z"/>
<path d="M1997 5561 c-17 -6 -16 -8 6 -30 16 -14 27 -19 32 -12 3 6 4 12 1 12
-3 1 -10 3 -16 4 -5 1 -13 3 -17 4 -5 1 1 8 11 16 21 16 13 18 -17 6z"/>
<path d="M4140 5460 c-63 -46 -50 -55 15 -10 24 17 46 30 50 30 3 0 31 -19 61
-41 51 -39 72 -47 56 -23 -6 10 -117 84 -124 84 -2 0 -28 -18 -58 -40z"/>
<path d="M1904 5469 c-7 -13 -5 -15 98 -98 49 -39 80 -72 84 -88 16 -61 -83
-173 -139 -159 -13 3 -64 37 -112 76 -69 55 -91 68 -101 59 -8 -6 -14 -12 -14
-13 0 -8 183 -148 205 -156 79 -30 195 71 195 172 0 55 -11 69 -120 157 -79
64 -85 67 -96 50z"/>
<path d="M4761 5344 c0 -11 3 -14 6 -6 3 7 2 16 -1 19 -3 4 -6 -2 -5 -13z"/>
<path d="M2780 5346 c0 -5 21 -31 46 -60 26 -28 60 -75 76 -103 33 -58 48 -72
22 -20 -36 70 -144 207 -144 183z"/>
<path d="M4746 5274 c-4 -14 -5 -28 -3 -31 3 -2 8 8 11 23 4 14 5 28 3 31 -3
2 -8 -8 -11 -23z"/>
<path d="M4708 5170 c-15 -32 -58 -96 -94 -142 -58 -73 -141 -214 -132 -223 2
-2 18 24 36 58 17 34 60 96 93 137 54 66 138 214 128 225 -2 2 -16 -23 -31
-55z"/>
<path d="M1608 5075 c-43 -69 -78 -129 -78 -134 0 -8 30 -25 35 -19 1 2 14 24
29 50 16 27 32 50 37 53 5 3 59 -26 120 -65 101 -64 139 -78 139 -51 0 5 -52
42 -115 81 -63 40 -115 76 -115 80 0 5 14 32 32 60 26 43 29 53 17 61 -8 5
-16 9 -19 9 -3 0 -40 -57 -82 -125z"/>
<path d="M5561 5164 c0 -11 3 -14 6 -6 3 7 2 16 -1 19 -3 4 -6 -2 -5 -13z"/>
<path d="M4411 5099 c-77 -44 -171 -144 -215 -228 -21 -40 -36 -74 -34 -76 2
-2 17 22 33 53 39 75 130 171 216 227 38 25 69 48 69 50 0 10 -17 4 -69 -26z"/>
<path d="M3727 5068 c-28 -38 -81 -141 -91 -178 -4 -14 7 4 23 38 17 35 47 86
67 113 20 28 34 52 31 55 -3 3 -16 -10 -30 -28z"/>
<path d="M5531 5063 c-48 -135 -159 -253 -320 -338 -115 -61 -196 -124 -252
-198 -26 -33 -19 -29 31 21 77 76 116 104 239 167 128 66 220 157 280 278 24
48 41 91 39 97 -2 6 -10 -6 -17 -27z"/>
<path d="M3951 5074 c0 -11 3 -14 6 -6 3 7 2 16 -1 19 -3 4 -6 -2 -5 -13z"/>
<path d="M1484 4854 c-71 -72 -95 -170 -51 -218 53 -60 98 -40 168 74 45 72
64 86 99 75 53 -17 31 -117 -41 -187 -31 -31 -46 -53 -43 -63 9 -22 20 -19 66
23 81 73 114 197 64 247 -59 59 -114 38 -181 -69 -48 -77 -75 -97 -100 -76
-33 27 -10 97 52 162 23 23 33 42 30 52 -9 24 -23 20 -63 -20z"/>
<path d="M5064 4860 c-81 -12 -178 -48 -245 -92 -69 -44 -154 -128 -182 -179
l-19 -34 28 35 c111 139 250 223 419 250 32 5 63 14 69 20 11 11 7 11 -70 0z"/>
<path d="M2205 4567 c39 -19 93 -50 120 -71 l50 -37 -39 36 c-46 41 -133 92
-173 100 -15 3 4 -9 42 -28z"/>
<path d="M1288 4413 c-3 -15 23 -28 142 -70 80 -29 151 -52 158 -52 6 -1 12 7
12 18 0 15 -29 28 -148 70 -81 28 -151 51 -154 51 -4 0 -8 -8 -10 -17z"/>
<path d="M7142 4291 c-10 -6 -8 -29 13 -111 14 -57 23 -105 21 -108 -3 -2 -64
31 -137 75 -72 43 -138 77 -145 77 -8 -1 -18 -2 -24 -3 -5 0 -10 -9 -10 -18 0
-23 56 -253 64 -260 3 -3 12 -3 20 0 12 5 9 24 -15 123 -17 64 -28 118 -26
120 2 2 66 -34 142 -81 125 -77 185 -101 185 -76 0 17 -62 256 -69 263 -3 4
-12 4 -19 -1z"/>
<path d="M1510 4160 c-16 -67 -28 -100 -37 -100 -8 0 -68 14 -133 30 -65 17
-124 30 -129 30 -22 0 -11 -40 12 -45 12 -3 83 -20 158 -38 l136 -34 28 116
c16 64 30 122 33 129 2 7 -5 12 -20 12 -23 0 -26 -7 -48 -100z"/>
<path d="M6855 4250 c-3 -5 -1 -10 4 -10 6 0 11 5 11 10 0 6 -2 10 -4 10 -3 0
-8 -4 -11 -10z"/>
<path d="M2224 4133 c-27 -20 -51 -38 -53 -40 -2 -2 -2 -6 1 -9 8 -7 118 66
118 77 0 16 -17 9 -66 -28z"/>
<path d="M6442 4129 c-29 -23 -51 -44 -48 -47 7 -7 116 67 116 79 0 16 -14 9
-68 -32z"/>
<path d="M2045 4007 c-16 -12 -41 -30 -55 -40 l-25 -19 25 7 c14 5 42 19 63
33 27 18 43 23 53 16 7 -5 34 -24 59 -42 27 -20 45 -28 45 -20 0 13 -109 89
-126 87 -5 0 -22 -10 -39 -22z"/>
<path d="M6252 3993 c-66 -45 -60 -57 9 -15 27 18 54 32 58 32 4 0 32 -18 61
-40 29 -22 55 -40 57 -40 12 0 0 32 -14 37 -10 4 -37 19 -60 35 -23 15 -45 28
-50 27 -4 0 -32 -16 -61 -36z"/>
<path d="M1321 3895 c-15 -100 -14 -105 9 -105 20 0 23 6 35 83 7 44 17 46 49
12 29 -31 37 -70 26 -119 -23 -105 -140 -138 -217 -61 -29 29 -33 39 -33 89 0
50 4 60 35 94 29 33 33 41 22 56 -12 16 -15 16 -41 -5 -64 -50 -83 -151 -43
-229 32 -64 83 -92 163 -88 77 5 124 37 149 103 22 56 16 135 -12 173 -27 36
-81 72 -108 72 -20 0 -24 -7 -34 -75z"/>
<path d="M7130 3914 c-201 -32 -208 -34 -203 -55 3 -10 8 -17 12 -15 3 2 75
14 159 27 133 19 152 25 152 41 0 21 -4 21 -120 2z"/>
<path d="M3321 3803 c-20 -10 -39 -30 -44 -45 -14 -45 10 -78 82 -113 73 -36
91 -64 66 -101 -27 -42 -101 -26 -135 28 l-21 33 3 -45 3 -45 56 -9 c47 -7 63
-6 95 10 47 23 71 66 58 103 -6 18 -31 37 -81 64 -84 44 -103 76 -63 109 28
23 37 23 82 -1 32 -16 38 -16 43 -3 7 20 7 21 -56 27 -41 5 -62 2 -88 -12z"/>
<path d="M3645 3807 c-22 -8 -51 -19 -63 -26 -68 -37 -69 -207 -1 -255 90 -62
238 6 254 118 9 58 -6 114 -38 144 -29 28 -99 36 -152 19z m69 -21 c51 -21 66
-50 66 -126 0 -80 -15 -112 -56 -121 -81 -16 -137 41 -137 140 0 63 14 98 46
111 31 12 43 12 81 -4z"/>
<path d="M4394 3812 c4 -7 13 -12 20 -12 25 0 46 -36 46 -78 0 -54 -21 -74
-74 -70 l-41 3 -3 63 c-2 38 2 69 9 78 9 12 5 14 -25 14 l-36 0 0 -134 c0 -74
-3 -141 -6 -150 -5 -13 2 -16 36 -16 22 0 39 4 36 9 -3 4 -8 31 -12 60 l-6 51
36 0 c54 0 115 28 131 61 35 66 8 115 -69 126 -36 4 -47 3 -42 -5z"/>
<path d="M4905 3811 l-40 -6 0 -148 0 -147 37 0 c36 0 37 1 28 26 -12 32 -13
101 -1 108 15 9 54 -29 86 -83 28 -46 33 -51 67 -51 l38 0 -55 68 c-30 37 -55
70 -55 73 0 3 12 12 26 19 34 19 56 63 48 96 -12 46 -73 61 -179 45z m108 -28
c10 -10 17 -31 17 -54 0 -45 -27 -69 -77 -69 l-33 0 0 69 c0 46 4 71 13 75 18
7 60 -3 80 -21z"/>
<path d="M3908 3680 c2 -80 -1 -137 -8 -150 -10 -19 -8 -20 85 -20 52 0 95 3
95 8 0 4 3 18 7 32 l6 24 -28 -22 c-18 -14 -42 -22 -67 -22 l-39 0 3 140 3
140 -30 0 -30 0 3 -130z"/>
<path d="M4588 3696 c2 -62 -1 -129 -6 -149 l-10 -36 104 -3 104 -3 10 29 c6
16 8 32 5 34 -3 3 -5 1 -5 -5 0 -17 -49 -33 -101 -33 l-50 0 3 68 3 67 40 -2
c24 -2 45 -10 53 -20 10 -14 12 -11 12 22 0 30 -3 36 -12 27 -7 -7 -31 -12
-55 -12 l-43 0 0 60 0 60 52 0 c34 0 58 -6 70 -17 17 -15 18 -15 18 5 0 21 -4
22 -97 22 l-98 0 3 -114z"/>
<path d="M7029 3767 c-18 -12 -44 -38 -57 -57 -20 -30 -23 -44 -20 -102 4 -75
21 -107 78 -145 25 -17 47 -23 90 -23 66 0 110 24 148 80 20 30 23 44 20 102
-4 75 -21 107 -78 146 -46 31 -134 31 -181 -1z m165 -38 c59 -46 74 -130 33
-190 -27 -41 -60 -59 -107 -59 -47 0 -80 18 -107 59 -42 63 -24 163 35 195 41
23 114 20 146 -5z"/>
<path d="M1130 3456 l0 -146 165 0 165 0 0 145 c0 135 -1 145 -19 145 -22 0
-31 -50 -31 -171 l0 -79 -50 0 -50 0 0 85 c0 77 -2 85 -19 85 -23 0 -31 -26
-31 -107 l0 -63 -32 0 c-55 0 -56 5 -55 130 2 112 1 115 -20 118 -23 3 -23 3
-23 -142z"/>
<path d="M3705 3413 c-55 -14 -113 -46 -124 -70 -32 -70 -21 -171 23 -212 46
-43 152 -40 206 6 43 36 63 79 63 138 0 106 -68 162 -168 138z m78 -51 c10
-11 23 -39 27 -63 9 -46 -3 -136 -20 -153 -5 -5 -30 -9 -56 -9 -40 0 -51 4
-75 31 -50 56 -47 191 4 212 33 14 97 4 120 -18z"/>
<path d="M4026 3404 c-79 -29 -110 -78 -104 -165 6 -89 62 -139 156 -139 45 0
51 3 81 40 33 41 31 51 -3 25 -11 -8 -39 -15 -63 -15 -33 0 -50 7 -75 29 -29
25 -32 35 -36 94 -4 60 -2 68 21 91 40 40 129 31 146 -16 7 -19 9 -17 18 19
10 41 10 41 -20 47 -44 9 -78 6 -121 -10z"/>
<path d="M4216 3395 c-3 -11 -6 -28 -6 -37 0 -14 4 -13 25 7 15 16 36 25 55
25 l30 0 0 -126 c0 -69 -5 -134 -10 -145 -10 -17 -7 -19 35 -19 39 0 46 3 41
18 -5 18 -8 103 -7 210 l1 63 37 -3 c28 -2 41 -9 50 -28 11 -22 13 -22 13 -5
0 11 3 29 6 40 5 19 0 20 -130 20 -127 0 -135 -1 -140 -20z"/>
<path d="M4645 3413 l-100 -4 0 -154 0 -155 101 0 c88 0 102 2 107 18 2 9 8
26 13 36 7 18 5 17 -22 -2 -19 -14 -47 -23 -79 -24 l-50 -3 -3 68 -3 67 35 0
c22 0 42 -7 53 -19 18 -19 18 -18 20 27 1 35 -1 43 -8 30 -7 -13 -22 -18 -53
-18 -23 0 -45 2 -47 4 -2 2 -2 27 -1 55 3 38 8 52 22 56 27 9 98 -13 109 -33
8 -14 10 -9 11 21 0 20 -1 36 -2 35 -2 -1 -48 -4 -103 -5z"/>
<path d="M3210 3388 c22 -24 23 -42 10 -177 -5 -58 -14 -97 -22 -102 -8 -6 3
-9 29 -9 l42 0 -10 32 c-5 18 -9 73 -9 121 l0 89 101 -121 c59 -71 108 -121
118 -121 16 0 19 15 24 138 3 75 8 145 12 155 6 14 2 17 -23 17 -29 0 -30 -1
-21 -37 5 -21 8 -74 8 -118 l0 -80 -59 65 c-33 36 -77 89 -97 117 -36 49 -41
53 -81 53 l-43 0 21 -22z"/>
<path d="M4831 3328 c-1 -99 -10 -187 -23 -210 -7 -15 -4 -18 25 -18 l33 0 -7
58 c-11 83 -11 198 0 187 5 -6 32 -63 61 -128 38 -83 58 -117 69 -115 8 2 37
54 68 123 29 66 55 125 58 130 2 6 4 -50 2 -123 l-2 -132 35 0 35 0 0 155 0
155 -37 0 c-21 0 -38 -4 -38 -9 0 -15 -94 -220 -101 -221 -6 0 -80 151 -98
203 -9 22 -17 27 -45 27 l-34 0 -1 -82z"/>
<path d="M6962 3256 c3 -18 16 -22 125 -36 67 -9 124 -18 127 -21 3 -3 -41
-29 -97 -58 -56 -30 -105 -57 -110 -60 -4 -4 33 -42 83 -85 49 -44 90 -83 90
-87 0 -5 -12 -6 -27 -4 -56 10 -185 25 -209 25 -17 0 -24 -6 -24 -18 0 -17 19
-21 160 -38 122 -15 160 -17 160 -8 0 7 2 19 5 27 4 9 -26 41 -85 91 -49 43
-90 80 -90 84 0 4 47 31 104 60 86 45 105 58 109 80 3 15 5 27 4 28 -1 0 -75
10 -165 20 l-163 20 3 -20z"/>
<path d="M1261 3260 c-47 -11 -83 -40 -105 -84 -17 -35 -17 -46 -6 -152 10
-94 15 -114 29 -114 37 1 303 39 308 44 10 9 -18 199 -34 233 -28 60 -115 93
-192 73z m115 -59 c38 -23 52 -62 56 -151 l3 -64 -105 -13 c-58 -7 -110 -11
-117 -9 -6 3 -14 41 -18 90 -6 72 -5 90 10 112 33 51 116 68 171 35z"/>
<path d="M6867 2713 c-27 -103 -33 -139 -24 -145 23 -15 32 0 62 113 30 112
31 114 58 111 16 -2 39 -7 51 -12 l24 -9 -19 -68 c-24 -84 -24 -89 0 -96 16
-4 22 5 37 64 24 94 23 93 73 79 35 -9 41 -14 36 -30 -17 -55 -55 -197 -55
-208 0 -8 9 -12 22 -10 18 3 26 20 55 132 19 70 32 130 30 133 -5 4 -296 83
-308 83 -3 0 -22 -62 -42 -137z"/>
<path d="M1378 2699 c-128 -111 -136 -120 -129 -146 l7 -28 178 -23 c98 -13
180 -21 183 -19 2 3 0 15 -7 26 -8 15 -20 21 -45 21 -40 0 -43 4 -74 112 l-22
77 31 28 c25 22 30 32 23 50 -7 20 -19 12 -145 -98z m72 -85 c12 -36 20 -67
18 -69 -5 -6 -168 17 -167 24 0 5 120 111 126 111 1 0 11 -30 23 -66z"/>
<path d="M982 2555 c0 -11 3 -29 8 -40 11 -25 11 1 0 35 -6 20 -8 21 -8 5z"/>
<path d="M1178 2537 c-19 -16 -24 -27 -19 -41 6 -17 10 -15 34 14 43 50 34 68
-15 27z"/>
<path d="M6814 2525 c-8 -21 0 -28 59 -50 26 -10 47 -19 47 -21 0 -2 -12 -33
-26 -69 -28 -69 -26 -68 -118 -82 -35 -6 -53 -15 -64 -31 l-16 -24 50 7 c27 3
61 9 77 11 24 5 27 3 27 -23 0 -73 125 -119 173 -65 8 9 35 67 60 128 l44 112
-141 57 c-77 31 -147 59 -153 62 -7 3 -16 -2 -19 -12z m211 -112 c19 -9 35
-22 35 -29 0 -23 -67 -168 -82 -177 -21 -14 -65 -1 -78 23 -8 15 -2 39 26 110
21 51 42 90 50 90 7 0 29 -8 49 -17z"/>
<path d="M1000 2479 c0 -7 14 -59 30 -116 91 -316 262 -668 459 -948 112 -160
218 -283 380 -445 91 -91 164 -169 163 -173 -1 -5 2 -6 8 -2 9 6 141 -97 148
-116 2 -5 10 -9 17 -9 8 0 18 -8 24 -17 5 -10 13 -17 18 -16 4 1 20 -9 35 -23
15 -13 32 -24 38 -24 5 0 10 -5 10 -11 0 -5 4 -8 9 -4 6 3 13 0 18 -8 11 -17
207 -134 323 -192 340 -169 736 -291 1075 -330 28 -3 84 -11 125 -17 97 -15
542 -15 645 0 44 6 105 14 135 17 72 8 389 72 443 89 23 7 83 26 132 42 50 16
93 33 97 39 4 5 8 6 8 1 0 -6 5 -5 11 1 6 6 18 9 25 6 8 -3 14 -1 14 4 0 5 10
9 22 10 11 1 25 8 29 15 5 7 9 9 9 4 0 -5 6 -3 13 3 8 6 17 8 20 4 4 -3 7 -1
7 6 0 7 5 9 10 6 6 -3 10 -1 10 5 0 6 5 8 10 5 6 -3 10 -1 10 5 0 7 7 9 16 6
8 -3 13 -2 10 3 -7 11 74 42 87 34 6 -3 7 -1 4 4 -8 13 20 26 35 16 7 -4 8 -1
3 7 -6 10 -4 12 9 7 9 -4 15 -3 12 2 -7 11 22 23 35 15 5 -3 8 -1 7 5 -2 5 47
38 108 73 443 254 878 679 1141 1115 47 78 31 64 -28 -24 -138 -206 -353 -447
-562 -631 -504 -444 -1122 -719 -1807 -804 -140 -17 -650 -17 -790 0 -640 79
-1209 321 -1712 728 -199 161 -442 419 -602 641 -193 268 -368 617 -461 916
-26 82 -35 102 -35 76z"/>
<path d="M1324 2377 c-21 -12 -20 -14 41 -152 35 -77 68 -140 74 -139 27 2 31
5 31 17 0 6 -11 36 -25 65 l-25 53 65 30 c212 95 197 87 185 108 -10 19 -14
18 -119 -28 -160 -72 -146 -72 -178 -2 -26 56 -29 59 -49 48z"/>
<path d="M3140 2310 c-30 -10 -83 -26 -118 -36 -35 -9 -66 -22 -69 -27 -4 -7
1 -8 13 -3 10 4 62 20 115 35 52 15 104 33 115 39 26 15 10 13 -56 -8z"/>
<path d="M3612 2280 c-64 -60 -153 -111 -247 -141 -63 -20 -89 -22 -255 -20
-215 2 -291 -12 -413 -76 -70 -36 -238 -185 -225 -198 3 -4 37 24 75 62 81 79
153 125 250 158 104 36 181 45 337 38 113 -5 154 -2 205 11 103 27 189 74 266
148 39 37 68 67 65 67 -3 0 -29 -22 -58 -49z"/>
<path d="M3903 2268 c-22 -24 -51 -63 -63 -88 -38 -75 -110 -158 -201 -231
-90 -72 -115 -96 -107 -104 9 -9 198 155 239 208 23 28 52 74 66 101 14 28 45
75 70 104 54 63 52 67 -4 10z"/>
<path d="M1615 2103 c-77 -41 -143 -78 -147 -81 -4 -4 -1 -14 6 -24 11 -15 26
-9 151 59 77 41 142 77 144 79 2 2 0 12 -5 23 -8 18 -19 14 -149 -56z"/>
<path d="M6657 2173 c-4 -3 -7 -10 -7 -15 0 -13 281 -150 296 -144 35 14 5 37
-126 99 -145 69 -152 72 -163 60z"/>
<path d="M4120 2092 c-72 -139 -195 -234 -406 -312 -195 -73 -333 -209 -414
-409 -16 -39 -27 -78 -23 -87 3 -10 17 16 37 68 40 107 90 180 176 261 74 71
163 125 250 152 180 58 315 169 391 323 42 85 33 89 -11 4z"/>
<path d="M5166 2063 c-42 -109 -76 -209 -75 -228 0 -11 10 14 23 55 13 41 35
104 50 139 15 34 26 67 24 72 -2 5 -11 -12 -22 -38z"/>
<path d="M5495 2081 c47 -51 167 -127 238 -150 100 -34 268 -47 251 -20 -3 5
-35 9 -72 9 -133 0 -270 52 -388 146 -44 36 -51 39 -29 15z"/>
<path d="M6561 2002 c-68 -110 -78 -170 -38 -231 36 -54 102 -85 168 -79 69 7
88 26 187 189 l22 36 -140 86 c-76 48 -140 87 -142 87 -2 -1 -27 -40 -57 -88z
m192 -46 c42 -27 77 -51 77 -55 0 -13 -82 -135 -99 -148 -22 -17 -86 -16 -122
2 -33 18 -69 69 -69 100 0 11 21 54 47 97 44 73 48 77 67 65 12 -7 56 -35 99
-61z"/>
<path d="M4660 2038 c0 -8 -16 -48 -37 -88 -27 -56 -63 -102 -147 -189 -62
-64 -128 -143 -148 -176 -57 -94 -90 -203 -96 -318 -4 -86 -6 -96 -20 -85 -13
11 -15 10 -9 -5 4 -10 7 -21 7 -23 0 -3 5 -2 12 2 7 4 8 3 4 -4 -4 -7 -8 -12
-10 -12 -7 0 -78 102 -101 145 -14 28 -23 39 -19 25 12 -45 64 -134 107 -183
l42 -49 0 134 c1 119 4 141 29 213 40 115 86 186 206 310 103 108 152 182 180
268 7 21 9 41 6 44 -3 4 -6 -1 -6 -9z"/>
<path d="M1711 2014 c-42 -35 -41 -75 5 -170 39 -83 41 -117 6 -122 -44 -6
-85 56 -107 161 -4 18 -12 27 -25 27 -17 0 -20 -7 -20 -40 0 -54 33 -122 81
-165 50 -45 89 -47 131 -5 36 36 33 60 -19 163 -36 73 -39 103 -11 121 48 30
127 -59 136 -154 4 -45 7 -50 28 -50 20 0 24 5 24 33 0 59 -31 128 -80 179
-56 58 -99 65 -149 22z"/>
<path d="M4351 1988 c-7 -24 -29 -74 -50 -113 -44 -83 -74 -155 -63 -155 16 1
141 294 130 306 -3 2 -10 -15 -17 -38z"/>
<path d="M1950 1736 c-22 -62 -23 -63 -50 -53 -59 22 -140 -32 -140 -95 0 -38
9 -52 98 -161 l64 -77 46 38 c207 169 213 174 201 188 -16 20 -22 18 -69 -21
-23 -19 -43 -35 -45 -35 -2 0 -24 24 -49 54 l-46 53 26 71 c22 59 24 74 14 87
-20 24 -27 18 -50 -49z m0 -173 l63 -77 -39 -33 c-21 -18 -41 -33 -44 -32 -12
0 -120 149 -120 165 0 25 29 54 55 54 15 0 41 -23 85 -77z"/>
<path d="M5082 1770 c0 -19 2 -27 5 -17 2 9 2 25 0 35 -3 9 -5 1 -5 -18z"/>
<path d="M6384 1743 c-10 -15 7 -31 119 -115 72 -54 134 -98 138 -98 11 0 21
32 12 40 -16 14 -252 190 -255 190 -2 0 -8 -8 -14 -17z"/>
<path d="M2997 1649 c-31 -22 -55 -45 -51 -50 3 -5 29 7 57 28 29 20 54 38 56
39 1 2 1 8 0 13 -2 6 -30 -7 -62 -30z"/>
<path d="M5653 1652 c-29 -20 -52 -43 -53 -50 0 -8 26 5 60 29 33 23 57 46 54
50 -7 11 0 14 -61 -29z"/>
<path d="M4850 1623 c0 -24 82 -133 143 -189 56 -53 202 -142 214 -131 10 11
-12 36 -35 42 -83 20 -221 132 -284 229 -21 33 -38 55 -38 49z"/>
<path d="M6270 1601 c-55 -29 -92 -82 -98 -140 -2 -27 -2 -61 2 -75 15 -60
103 -126 168 -126 46 1 109 31 141 69 71 85 53 204 -42 268 -43 29 -121 31
-171 4z m136 -37 c68 -32 93 -117 54 -182 -58 -95 -189 -93 -235 4 -30 64 7
148 80 180 40 18 60 17 101 -2z"/>
<path d="M2805 1514 c-45 -31 -67 -54 -51 -54 4 0 31 16 60 36 l54 36 58 -45
c33 -25 61 -44 62 -42 2 2 1 13 -3 25 -4 12 -9 19 -12 16 -3 -3 -28 11 -57 30
-28 18 -53 34 -56 33 -3 0 -27 -16 -55 -35z"/>
<path d="M5466 1515 c-27 -19 -53 -36 -60 -38 -6 -2 -8 -8 -4 -12 4 -4 33 9
63 29 l56 37 47 -34 c65 -47 72 -50 72 -35 0 7 -12 20 -28 29 -15 9 -43 26
-62 37 l-36 21 -48 -34z"/>
<path d="M2180 1524 c-12 -13 -1 -28 75 -104 l89 -90 -29 -30 c-16 -16 -34
-30 -40 -30 -6 0 -35 25 -65 55 -51 52 -55 54 -72 38 -18 -16 -16 -19 42 -78
l60 -61 -29 -28 -30 -29 -87 82 c-70 67 -89 80 -100 70 -8 -7 -14 -17 -12 -24
2 -6 47 -54 102 -106 l99 -94 113 120 113 120 -102 103 c-56 56 -105 102 -108
102 -4 0 -12 -7 -19 -16z"/>
<path d="M6063 1389 c-9 -9 8 -36 69 -111 44 -55 78 -102 75 -105 -3 -3 -79
11 -168 31 -161 36 -163 36 -182 17 -19 -19 -18 -20 82 -145 56 -69 106 -126
110 -126 5 0 13 6 19 13 9 10 -8 36 -70 113 -50 61 -75 100 -67 102 8 1 84
-13 169 -32 142 -32 156 -34 172 -19 10 9 18 19 18 22 0 10 -194 244 -205 248
-6 2 -16 -2 -22 -8z"/>
<path d="M2371 1155 c-85 -47 -156 -86 -158 -88 -1 -2 8 -9 21 -16 22 -12 35
-7 152 57 71 39 130 69 132 67 2 -2 -11 -67 -28 -145 l-32 -142 20 -20 20 -21
17 79 c10 44 28 124 40 179 l23 100 -20 18 c-11 9 -23 17 -27 16 -3 0 -75 -38
-160 -84z"/>
<path d="M5800 1175 c-8 -9 -10 -28 -6 -50 7 -34 6 -35 -65 -81 -93 -60 -93
-59 -128 -34 -25 17 -34 19 -52 10 -12 -7 -17 -15 -13 -20 27 -24 286 -190
297 -190 7 0 21 6 30 13 16 11 16 21 -3 157 -31 230 -31 230 -60 195z m18
-227 c7 -45 11 -83 9 -84 -5 -5 -137 86 -137 94 1 7 99 71 111 72 3 0 11 -37
17 -82z"/>
<path d="M2639 973 c-46 -74 -85 -139 -87 -143 -2 -5 6 -13 17 -19 17 -10 27
2 105 128 47 77 86 142 86 145 0 3 -8 10 -18 15 -16 8 -29 -8 -103 -126z"/>
<path d="M2737 898 c-37 -78 -65 -148 -63 -155 13 -32 35 -5 89 103 32 64 60
114 62 112 3 -2 20 -76 39 -163 34 -155 47 -185 81 -185 6 0 44 66 83 147 70
142 72 148 52 157 -11 5 -22 7 -24 5 -2 -2 -29 -55 -60 -118 -32 -62 -59 -112
-60 -110 -2 2 -19 74 -37 159 -33 151 -50 190 -82 190 -7 0 -44 -64 -80 -142z"/>
<path d="M5373 936 c-72 -35 -188 -83 -257 -106 -69 -23 -126 -47 -126 -53 1
-38 16 -38 130 3 62 22 117 37 120 33 12 -14 30 -75 25 -84 -3 -4 -37 -18 -75
-30 -53 -17 -70 -27 -70 -41 0 -30 21 -30 93 -3 37 14 69 25 72 25 6 0 29 -79
24 -84 -2 -2 -51 -19 -109 -38 -88 -30 -104 -38 -102 -54 2 -10 6 -21 9 -24 8
-8 263 85 263 96 0 10 -53 170 -86 259 -4 11 -4 17 1 13 4 -4 42 10 84 31 127
64 111 70 183 -74 58 -114 65 -124 81 -113 17 12 13 24 -52 161 -39 81 -72
147 -73 146 -2 0 -62 -29 -135 -63z"/>
<path d="M3155 839 c-30 -15 -42 -37 -84 -161 -37 -105 -37 -109 -19 -119 11
-6 21 -9 23 -7 2 2 19 50 39 108 20 57 44 112 53 122 35 39 145 13 186 -43
l19 -27 -36 -108 c-20 -60 -36 -114 -36 -120 0 -7 9 -14 20 -17 18 -4 24 9 61
123 l42 129 -20 38 c-37 72 -176 117 -248 82z"/>
<path d="M3846 594 c-21 -20 -20 -35 0 -27 15 6 16 -1 10 -68 -4 -41 -10 -84
-13 -96 -4 -18 -1 -23 15 -23 17 0 20 9 26 68 4 37 9 88 13 115 5 43 4 47 -15
47 -11 0 -28 -7 -36 -16z"/>
<path d="M3941 582 c-28 -22 -31 -75 -6 -102 26 -28 76 -35 115 -15 40 20 46
15 26 -23 -23 -44 -82 -58 -116 -27 -15 14 -19 14 -29 1 -11 -13 -7 -19 21
-36 39 -24 69 -25 108 -5 76 39 81 173 9 211 -39 19 -102 18 -128 -4z m120
-32 l24 -20 -24 -20 c-41 -35 -111 -22 -111 22 0 39 73 51 111 18z"/>
<path d="M4188 593 c-42 -3 -58 -8 -58 -18 0 -12 17 -15 80 -15 l79 0 -60 -96
c-58 -93 -66 -112 -36 -101 22 8 140 205 133 222 -5 15 -11 16 -138 8z"/>
<path d="M4355 575 c-42 -41 -29 -95 26 -114 38 -13 76 -5 107 22 l22 20 0
-27 c0 -55 -69 -93 -120 -66 -13 7 -21 7 -26 -1 -9 -15 16 -37 46 -39 54 -4
73 1 101 29 24 24 29 38 29 76 0 52 -21 99 -49 115 -11 5 -40 10 -66 10 -35 0
-51 -6 -70 -25z m129 -28 c9 -15 7 -22 -13 -38 -53 -43 -138 -6 -95 42 23 26
92 23 108 -4z"/>
<path d="M3520 526 c0 -16 9 -20 95 -36 33 -6 68 -14 78 -16 12 -4 17 0 17 14
0 17 -13 22 -87 36 -106 19 -103 19 -103 2z"/>
<path d="M4788 522 c-71 -12 -88 -18 -88 -32 0 -16 6 -16 83 -4 45 8 88 14 95
14 6 0 12 9 12 20 0 11 -3 19 -7 19 -5 -1 -47 -8 -95 -17z"/>
</g>
</svg>
