<?xml version="1.0" encoding="UTF-8"?>
<!DOCTYPE svg PUBLIC "-//W3C//DTD SVG 1.1//EN" "http://www.w3.org/Graphics/SVG/1.1/DTD/svg11.dtd">
<svg xmlns="http://www.w3.org/2000/svg" version="1.1" width="2966px" height="1120px" style="shape-rendering:geometricPrecision; text-rendering:geometricPrecision; image-rendering:optimizeQuality; fill-rule:evenodd; clip-rule:evenodd" xmlns:xlink="http://www.w3.org/1999/xlink">
<g><path style="opacity:0.976" fill="#221dbe" d="M 2012.5,9.5 C 2052.92,46.1436 2093.09,83.1436 2133,120.5C 2133.67,121.5 2133.67,122.5 2133,123.5C 2120.17,137 2107.33,150.5 2094.5,164C 2093.5,164.667 2092.5,164.667 2091.5,164C 2051.5,127.333 2011.5,90.6667 1971.5,54C 1985.76,39.5767 1999.43,24.7434 2012.5,9.5 Z"/></g>
<g><path style="opacity:0.976" fill="#221dbe" d="M 1933.5,94.5 C 1973.8,131.628 2013.96,168.961 2054,206.5C 2054.67,207.5 2054.67,208.5 2054,209.5C 2041.2,223.305 2028.03,236.805 2014.5,250C 2013.5,250.667 2012.5,250.667 2011.5,250C 1972.33,213.5 1933.17,177 1894,140.5C 1893.33,139.5 1893.33,138.5 1894,137.5C 1907.74,123.597 1920.91,109.263 1933.5,94.5 Z"/></g>
<g><path style="opacity:0.989" fill="#221dbe" d="M 2582.5,200.5 C 2583.5,263.998 2583.83,327.664 2583.5,391.5C 2637.17,391.5 2690.83,391.5 2744.5,391.5C 2744.6,411.563 2744.6,431.563 2744.5,451.5C 2690.83,451.5 2637.17,451.5 2583.5,451.5C 2583.05,577.175 2583.55,702.842 2585,828.5C 2585.47,847.918 2588.47,866.918 2594,885.5C 2611.17,920.279 2639.34,938.779 2678.5,941C 2734.97,945.622 2784.3,929.289 2826.5,892C 2839.27,880.234 2850.94,867.567 2861.5,854C 2864.7,854.086 2867.7,855.086 2870.5,857C 2874.55,859.018 2878.22,861.518 2881.5,864.5C 2860.96,905.868 2831.96,940.035 2794.5,967C 2743.29,997.985 2688.29,1007.32 2629.5,995C 2595.03,986.864 2566.87,969.031 2545,941.5C 2532.62,923.03 2524.95,902.696 2522,880.5C 2519.43,864.595 2517.77,848.595 2517,832.5C 2516.33,647.5 2516.33,462.5 2517,277.5C 2540.74,253.289 2562.57,227.622 2582.5,200.5 Z"/></g>
<g><path style="opacity:0.978" fill="#221dbe" d="M 2462.5,331.5 C 2463.02,510.678 2463.85,690.011 2465,869.5C 2466.3,889.295 2469.97,908.628 2476,927.5C 2485.82,951.647 2501.65,970.814 2523.5,985C 2490.65,984.612 2462.15,973.446 2438,951.5C 2423.88,934.592 2414.55,915.259 2410,893.5C 2402.48,856.556 2398.81,819.223 2399,781.5C 2398.5,671.501 2398.33,561.501 2398.5,451.5C 2380.5,451.5 2362.5,451.5 2344.5,451.5C 2344.34,448.813 2344.5,446.146 2345,443.5C 2384.37,406.3 2423.53,368.967 2462.5,331.5 Z"/></g>
<g><path style="opacity:0.989" fill="#221dbe" d="M 1353.5,366.5 C 1398.87,365.896 1438.54,380.396 1472.5,410C 1497.08,432.664 1510.24,460.831 1512,494.5C 1514.14,513.443 1515.47,532.443 1516,551.5C 1516.5,697.833 1516.67,844.166 1516.5,990.5C 1493.47,991.323 1470.47,992.656 1447.5,994.5C 1452.86,899.577 1454.86,804.577 1453.5,709.5C 1453.33,660.167 1453.17,610.833 1453,561.5C 1453.01,533.234 1449.01,505.567 1441,478.5C 1430.87,448.71 1410.37,430.544 1379.5,424C 1345.48,418.115 1311.81,419.782 1278.5,429C 1236.11,440.906 1195.28,456.739 1156,476.5C 1155.33,596.833 1155.33,717.167 1156,837.5C 1156.29,872.679 1165.29,905.346 1183,935.5C 1201.06,961.13 1225.56,977.13 1256.5,983.5C 1256.5,988.833 1256.5,994.167 1256.5,999.5C 1222.86,996.724 1189.19,994.224 1155.5,992C 1134.52,990.834 1113.52,990.334 1092.5,990.5C 1092.5,786.833 1092.5,583.167 1092.5,379.5C 1115.49,379.303 1138.33,377.636 1161,374.5C 1160.12,388.197 1158.62,401.864 1156.5,415.5C 1156.83,416.833 1157.17,418.167 1157.5,419.5C 1219.01,387.099 1284.34,369.432 1353.5,366.5 Z"/></g>
<g><path style="opacity:0.985" fill="#221dbe" d="M 532.5,369.5 C 612.224,370.145 689.391,384.478 764,412.5C 763.11,427.3 762.277,442.134 761.5,457C 763.195,494.541 765.529,532.041 768.5,569.5C 767.888,584.571 766.554,599.571 764.5,614.5C 757.833,614.5 751.167,614.5 744.5,614.5C 732.746,549.774 700.413,498.274 647.5,460C 596.08,427.646 540.08,415.313 479.5,423C 407.969,432.91 353.802,468.743 317,530.5C 299.173,564.319 288.839,600.319 286,638.5C 281.192,692.424 287.192,745.091 304,796.5C 342.838,905.036 420.004,954.869 535.5,946C 603.227,939.888 659.393,911.388 704,860.5C 721.966,839.911 737.466,817.577 750.5,793.5C 762.148,792.501 773.814,792.168 785.5,792.5C 765.673,869.122 722.339,928.289 655.5,970C 608.929,995.976 558.929,1008.14 505.5,1006.5C 417.608,1010.51 345.441,979.176 289,912.5C 236.512,848.708 211.679,775.208 214.5,692C 212.936,626.137 227.769,564.304 259,506.5C 298.227,436.755 357.394,394.255 436.5,379C 468.373,372.979 500.373,369.813 532.5,369.5 Z"/></g>
<g><path style="opacity:0.989" fill="#221dbe" d="M 865.5,369.5 C 920.957,375.349 976.624,378.682 1032.5,379.5C 1032.5,583.167 1032.5,786.833 1032.5,990.5C 981.109,992.526 929.775,995.526 878.5,999.5C 878.5,994.167 878.5,988.833 878.5,983.5C 910.675,973.157 934.841,953.157 951,923.5C 958.669,902.162 963.335,880.162 965,857.5C 966.616,840.536 967.616,823.536 968,806.5C 968.667,720.167 968.667,633.833 968,547.5C 967.688,519.372 964.021,491.705 957,464.5C 951.184,441.692 938.684,423.525 919.5,410C 903.029,399.503 885.363,391.503 866.5,386C 865.527,380.593 865.193,375.093 865.5,369.5 Z"/></g>
<g><path style="opacity:0.984" fill="#221dbe" d="M 1900.5,379.5 C 1922.17,379.5 1943.83,379.5 1965.5,379.5C 1965.33,533.834 1965.5,688.167 1966,842.5C 1966.84,865.055 1969.51,887.389 1974,909.5C 1981.88,951.675 2005.04,981.842 2043.5,1000C 2033.83,1000.67 2024.17,1000.67 2014.5,1000C 1973.15,982.646 1941.98,954.146 1921,914.5C 1908.64,882.001 1901.97,848.334 1901,813.5C 1900.5,668.834 1900.33,524.167 1900.5,379.5 Z"/></g>
<g><path style="opacity:0.987" fill="#221dbe" d="M 2020.5,379.5 C 2042.17,379.5 2063.83,379.5 2085.5,379.5C 2085.33,525.5 2085.5,671.5 2086,817.5C 2085.78,851.763 2093.45,884.097 2109,914.5C 2124.75,939.877 2147.58,954.377 2177.5,958C 2203.22,961.494 2227.55,957.328 2250.5,945.5C 2251.66,952.142 2251.83,958.808 2251,965.5C 2203.51,1003.76 2151.68,1010.93 2095.5,987C 2047.32,957.699 2023.15,914.532 2023,857.5C 2022.06,844.848 2021.39,832.182 2021,819.5C 2020.5,672.834 2020.33,526.167 2020.5,379.5 Z"/></g>
<g><path style="opacity:0.988" fill="#221dbe" d="M 1508.5,384.5 C 1547.43,386.517 1580.27,401.517 1607,429.5C 1619.92,449.254 1627.92,470.921 1631,494.5C 1634.1,513.384 1636.1,532.384 1637,551.5C 1637.33,635.5 1637.67,719.5 1638,803.5C 1637.81,832.382 1640.15,861.049 1645,889.5C 1650.34,914.361 1662.51,935.194 1681.5,952C 1700.22,969.192 1722.22,979.692 1747.5,983.5C 1747.5,988.833 1747.5,994.167 1747.5,999.5C 1690.22,995.483 1632.89,992.483 1575.5,990.5C 1575.67,841.5 1575.5,692.5 1575,543.5C 1574.79,513.141 1571.45,483.141 1565,453.5C 1559.36,433.87 1548.86,417.37 1533.5,404C 1525.03,397.46 1516.7,390.96 1508.5,384.5 Z"/></g>
<g><path style="opacity:0.979" fill="#221dbe" d="M 245.5,430.5 C 209.595,466.564 185.095,509.897 172,560.5C 154.7,636.546 153.366,712.879 168,789.5C 178.188,841.506 199.688,887.506 232.5,927.5C 187.497,908.665 152.997,877.998 129,835.5C 70.4419,727.716 72.7753,621.383 136,516.5C 148.083,498.416 162.916,482.916 180.5,470C 201.231,455.301 222.898,442.134 245.5,430.5 Z"/></g>
</svg>
