<?xml version="1.0" standalone="no"?>
<!DOCTYPE svg PUBLIC "-//W3C//DTD SVG 20010904//EN"
 "http://www.w3.org/TR/2001/REC-SVG-20010904/DTD/svg10.dtd">
<svg version="1.0" xmlns="http://www.w3.org/2000/svg"
 width="2966.000000pt" height="1120.000000pt" viewBox="0 0 2966.000000 1120.000000"
 preserveAspectRatio="xMidYMid meet">

<g transform="translate(0.000000,1120.000000) scale(0.100000,-0.100000)"
fill="#000000" stroke="none">
<path d="M19931 10873 l-203 -215 33 -33 c19 -18 291 -268 604 -555 l570 -523
80 86 c44 46 135 143 202 214 l121 129 -595 554 c-328 305 -598 556 -602 557
-3 1 -98 -95 -210 -214z"/>
<path d="M19184 10068 c-87 -95 -178 -194 -201 -219 l-43 -46 596 -554 c328
-305 599 -554 603 -554 13 0 410 419 404 427 -4 7 -1104 1033 -1179 1100 -21
19 -21 18 -180 -154z"/>
<path d="M25713 9027 c-138 -175 -235 -288 -409 -479 l-135 -148 4 -2787 c3
-2546 4 -2801 20 -2943 60 -541 154 -789 392 -1025 219 -218 497 -357 830
-416 173 -31 527 -34 705 -6 224 35 403 90 595 182 413 198 744 526 1024 1014
39 69 71 128 71 132 0 7 -146 95 -168 101 -5 2 -52 -46 -104 -107 -447 -518
-963 -775 -1553 -775 -245 0 -450 41 -622 125 -97 47 -125 67 -208 146 -217
208 -274 372 -305 869 -6 101 -10 869 -10 1968 l0 1802 763 0 c419 0 778 3
799 6 l36 6 -1 289 -2 289 -797 0 -798 0 0 950 c0 523 -3 950 -7 949 -5 0 -58
-64 -120 -142z"/>
<path d="M24040 7310 c-546 -520 -585 -559 -588 -593 l-3 -37 275 0 275 0 4
-1842 c4 -1928 4 -1933 47 -2238 51 -366 131 -624 243 -790 148 -220 375 -361
689 -429 97 -21 238 -38 238 -29 0 3 -26 22 -57 43 -84 55 -210 187 -276 286
-137 207 -191 385 -234 774 -15 135 -17 413 -22 2781 l-6 2630 -585 -556z"/>
<path d="M13325 7513 c-538 -44 -1064 -194 -1630 -462 -71 -34 -130 -59 -132
-57 -4 4 43 382 53 425 5 23 3 23 -33 18 -46 -8 -368 -33 -535 -42 l-118 -7 0
-3042 0 -3043 233 -7 c353 -10 1139 -64 1360 -92 l47 -7 0 76 0 76 -57 16
c-229 64 -406 167 -559 327 -196 205 -307 459 -371 850 -16 94 -17 275 -20
1999 l-3 1896 147 68 c563 259 1008 408 1408 472 151 24 472 24 602 0 320 -60
527 -197 643 -427 88 -174 146 -429 169 -745 14 -182 14 -3208 1 -3550 -14
-348 -39 -857 -46 -939 l-6 -68 48 6 c53 7 362 30 537 41 l107 7 0 1981 c-1
2365 -6 2654 -60 3027 -37 257 -89 403 -202 567 -63 92 -215 248 -312 320
-295 219 -657 326 -1081 321 -82 -1 -168 -3 -190 -5z"/>
<path d="M5050 7484 c-579 -39 -1002 -137 -1375 -319 -401 -196 -696 -462
-970 -875 -197 -296 -335 -611 -428 -975 -68 -266 -101 -492 -119 -826 -29
-554 51 -1124 219 -1549 152 -384 421 -782 734 -1085 439 -424 869 -624 1509
-702 202 -24 690 -24 875 0 349 47 628 129 906 267 589 293 1064 814 1323
1450 52 129 126 355 126 386 0 12 -28 14 -164 14 l-164 0 -38 -67 c-61 -111
-214 -340 -310 -463 -120 -155 -381 -415 -524 -522 -473 -353 -1007 -516
-1625 -495 -752 26 -1290 310 -1673 882 -251 376 -403 805 -478 1345 -21 159
-30 675 -14 852 52 575 226 1040 522 1393 367 439 835 695 1418 777 158 22
555 16 725 -10 444 -69 815 -233 1136 -501 368 -307 626 -735 766 -1272 l36
-139 88 0 c104 0 91 -19 114 175 20 175 19 383 -4 655 -43 499 -49 778 -25
1104 5 60 3 80 -7 87 -24 16 -429 146 -584 188 -576 156 -1163 234 -1735 229
-118 -1 -235 -3 -260 -4z"/>
<path d="M8670 7417 l0 -75 108 -36 c343 -118 587 -295 711 -517 91 -163 164
-497 191 -874 16 -222 8 -3031 -9 -3195 -41 -407 -94 -646 -177 -812 -58 -114
-191 -261 -337 -370 -73 -54 -250 -150 -324 -176 l-33 -11 0 -76 0 -77 48 6
c85 11 571 45 927 66 193 11 396 22 453 26 l102 6 0 3043 0 3043 -137 6 c-76
4 -286 13 -468 21 -474 22 -880 50 -1017 71 l-38 6 0 -75z"/>
<path d="M19010 5321 c0 -1285 4 -2136 10 -2247 29 -510 115 -884 257 -1125
167 -284 437 -527 773 -698 l118 -61 134 0 133 1 -80 42 c-117 61 -199 123
-290 218 -199 209 -306 465 -364 874 -45 318 -44 289 -48 2728 l-4 2337 -319
0 -320 0 0 -2069z"/>
<path d="M20220 5157 c0 -1425 4 -2290 10 -2392 42 -640 136 -901 430 -1195
169 -168 321 -266 506 -324 246 -76 564 -72 828 11 156 49 357 157 484 260
l42 34 0 90 c0 49 -3 89 -6 89 -3 0 -34 -13 -68 -29 -239 -114 -617 -133 -876
-43 -412 143 -641 530 -700 1182 -6 75 -10 885 -10 2333 l0 2217 -320 0 -320
0 0 -2233z"/>
<path d="M15168 7293 c217 -148 378 -332 453 -518 61 -153 108 -437 129 -775
6 -103 10 -1018 10 -2431 l0 -2266 148 -7 c429 -20 1367 -77 1505 -92 l57 -6
0 76 c0 74 0 76 -27 81 -69 15 -235 70 -300 100 -101 47 -222 128 -326 220
-213 187 -329 402 -382 708 -46 261 -47 300 -55 1857 -5 969 -11 1527 -19
1605 -61 647 -177 977 -413 1172 -199 164 -405 256 -681 303 -177 30 -181 29
-99 -27z"/>
<path d="M2280 6784 c-265 -147 -500 -311 -666 -466 -188 -176 -369 -467 -512
-823 -146 -363 -208 -659 -219 -1031 -14 -497 84 -934 321 -1429 194 -403 439
-697 763 -914 91 -61 297 -173 343 -186 23 -7 21 -4 -15 36 -58 63 -123 150
-194 258 -361 550 -538 1327 -518 2266 7 288 16 417 48 640 58 406 153 727
308 1040 121 243 252 430 429 613 45 45 77 82 73 82 -4 0 -77 -39 -161 -86z"/>
</g>
</svg>
